<?xml version="1.0" encoding="UTF-8"?>
<svg version="1.1" xmlns="http://www.w3.org/2000/svg" width="736" height="525">
<path d="M0 0 C4.1308356 0.00459242 8.26166634 0.0061942 12.39250422 0.00693583 C73.55765047 0.0194951 134.6631382 1.10035012 195.8039093 2.73763275 C212.26793322 3.17654647 228.73191679 3.55140057 245.19895935 3.85651398 C246.79257483 3.88612119 246.79257483 3.88612119 248.41838455 3.91632652 C253.66303662 4.01344739 258.90770905 4.10942149 264.15238953 4.2049942 C300.49282798 4.86958405 336.82216408 5.78199188 373.15208435 6.87995148 C374.76343262 6.92844238 374.76343262 6.92844238 376.40733337 6.9779129 C382.57758896 7.16379793 388.7477534 7.35236202 394.91780472 7.54491234 C396.76974871 7.60267975 398.6217048 7.66006103 400.47367477 7.71698952 C410.44158438 8.02488594 420.40736305 8.38038696 430.37132263 8.79767609 C431.31638609 8.83432908 432.26144955 8.87098207 433.23515129 8.90874577 C434.11210718 8.94713534 434.98906307 8.98552492 435.89259338 9.02507782 C437.05575671 9.07353804 437.05575671 9.07353804 438.24241829 9.12297726 C440.27708435 9.31745148 440.27708435 9.31745148 443.27708435 10.31745148 C443.27708435 11.96745148 443.27708435 13.61745148 443.27708435 15.31745148 C424.93974081 16.33981671 406.60428855 16.61593981 388.24424744 16.84967804 C384.2877099 16.90081794 380.33122882 16.95601027 376.3747406 17.01081085 C368.67557026 17.11687875 360.97635148 17.21862904 353.27708435 17.31745148 C354.26708435 19.29745148 355.25708435 21.27745148 356.27708435 23.31745148 C357.79302185 23.22463898 357.79302185 23.22463898 359.33958435 23.12995148 C364.31162719 23.36671542 368.12870909 24.28723686 371.83958435 27.79401398 C375.05375287 31.46017495 377.88598508 35.43620585 380.6872406 39.42292023 C386.27365997 46.0799556 394.87743696 51.00832131 403.52903748 51.89069366 C408.19396138 52.19315473 412.85423423 52.20199375 417.52708435 52.19245148 C419.15862663 52.21061938 420.79014166 52.23143474 422.4216156 52.25495148 C426.3737883 52.30625643 430.32459741 52.32192117 434.27708435 52.31745148 C435.12375714 67.23135889 435.55695562 82.13311843 435.83958435 97.06745148 C435.88293111 99.24063402 435.92654951 101.41381117 435.97044373 103.58698273 C436.07627076 108.8304129 436.17657594 114.07390609 436.27708435 119.31745148 C442.21708435 121.62745148 448.15708435 123.93745148 454.27708435 126.31745148 C453.58242837 112.38815188 452.49994971 98.52183444 451.27708435 84.62995148 C448.08986462 48.23293772 448.08986462 48.23293772 448.09178162 31.19660187 C448.0895406 28.96131518 448.07113196 26.72648308 448.05247498 24.4912796 C448.04954947 23.0622448 448.04755905 21.63320771 448.0466156 20.20417023 C448.04250671 18.92759552 448.03839783 17.65102081 448.03416443 16.33576202 C448.27708435 13.31745148 448.27708435 13.31745148 450.27708435 11.31745148 C453.40208435 11.69245148 453.40208435 11.69245148 456.27708435 12.31745148 C462.53010156 34.23016503 465.08078996 56.81238054 467.2419281 79.44635773 C467.32643156 80.3215399 467.41093502 81.19672207 467.49799919 82.09842491 C469.31540275 100.97438706 470.80627437 119.87017384 472.1544075 138.78487396 C472.34371182 141.43779407 472.53482696 144.09057961 472.72615051 146.7433548 C475.15874639 180.57763702 477.01700681 214.418335 478.27708435 248.31745148 C478.32208069 249.51166718 478.36707703 250.70588287 478.41343689 251.93628693 C479.23332513 274.10084427 479.63387733 296.26529929 479.90208435 318.44245148 C479.91298599 319.33583599 479.92388763 320.2292205 479.93511963 321.14967728 C480.51613245 369.43182919 480.06089821 417.62999566 477.93609619 465.87184525 C477.84063948 468.04344776 477.74712974 470.21512863 477.65367126 472.38681793 C477.47914394 476.40078681 477.28799905 480.41377548 477.0934906 484.42682648 C477.04134903 485.60472244 476.98920746 486.78261841 476.93548584 487.99620819 C476.61017807 494.31173173 476.08558231 500.23965513 474.27708435 506.31745148 C471.25164102 508.3344137 470.66641053 508.57556244 467.27708435 508.50495148 C466.59645935 508.49850616 465.91583435 508.49206085 465.21458435 508.48542023 C463.27708435 508.31745148 463.27708435 508.31745148 460.27708435 507.31745148 C458.21148003 507.66658233 458.21148003 507.66658233 455.98020935 508.39167023 C455.11677917 508.64521271 454.253349 508.89875519 453.36375427 509.15998077 C452.4276532 509.43882111 451.49155212 509.71766144 450.52708435 510.00495148 C418.89674699 518.94345339 385.92844606 520.89907567 353.19761539 520.69630671 C351.06484482 520.68430184 348.93211593 520.67794172 346.79931831 520.67282486 C312.25567206 520.57801631 277.75810844 519.20843159 243.24950373 517.75824523 C228.25241999 517.12805376 213.25425749 516.52379296 198.25591063 515.92449832 C196.60318743 515.85843929 194.95046871 515.79226813 193.29775453 515.72598386 C144.00816042 513.75015941 94.63251662 511.85281386 45.29597855 512.11981201 C43.09488655 512.13053458 40.89381473 512.13690379 38.69270325 512.14221954 C8.88234764 512.21456644 -20.92123395 512.58210176 -50.72291565 513.31745148 C-51.92796753 513.34667694 -53.13301941 513.3759024 -54.37458801 513.40601349 C-87.87160023 514.2273576 -121.32406555 515.59664771 -154.78541565 517.31745148 C-155.6070369 517.35956882 -156.42865814 517.40168617 -157.275177 517.4450798 C-175.52608857 518.38212508 -193.76832628 519.38807765 -211.99795532 520.68061066 C-218.80249915 521.15677286 -225.59003849 521.50427161 -232.41041565 521.62995148 C-233.4834922 521.65696136 -233.4834922 521.65696136 -234.57824707 521.68451691 C-239.22656896 521.67558288 -239.22656896 521.67558288 -241.34822083 520.14473724 C-248.30652665 510.89554756 -245.00845227 489.84337465 -244.98854065 478.91510773 C-244.99066239 476.36982412 -244.99343612 473.82454098 -244.99681091 471.27925873 C-245.00243206 464.41206127 -244.99360561 457.54496373 -244.98046112 450.67778015 C-244.97235993 446.35851414 -244.96873057 442.0392503 -244.9655304 437.71997833 C-244.91775263 380.64555465 -244.11559112 323.59345437 -242.9333725 266.53106213 C-242.77205589 258.7444557 -242.61624798 250.95775833 -242.46412659 243.1709671 C-239.72388346 103.31707411 -239.72388346 103.31707411 -233.09791565 35.00495148 C-232.98713684 33.85067657 -232.87635803 32.69640167 -232.76222229 31.50714874 C-232.23720343 26.52591029 -231.61092122 22.0051918 -229.72291565 17.31745148 C-153.0763192 4.50479777 -77.65530669 -0.08774348 0 0 Z M-69.50294495 14.75885773 C-70.67409361 14.78758028 -70.67409361 14.78758028 -71.86890185 14.81688309 C-85.52809037 15.16358319 -99.11816258 16.02668151 -112.72291565 17.31745148 C-112.87325256 18.18527252 -112.87325256 18.18527252 -113.02662659 19.07062531 C-116.56117269 39.20992397 -116.56117269 39.20992397 -119.98854065 47.35651398 C-120.89827291 49.43670277 -120.89827291 49.43670277 -120.72291565 52.31745148 C-70.72516942 52.45468415 -20.72744216 52.56045833 29.27045526 52.62384345 C35.16866136 52.631348 41.06686709 52.6391139 46.96507263 52.64704132 C48.139335 52.64861518 49.31359736 52.65018905 50.52344343 52.6518106 C69.55501937 52.67794238 88.58648694 52.72526298 107.61799851 52.78036825 C127.13558524 52.83641103 146.65311509 52.86979011 166.17077899 52.88198245 C178.22129508 52.89022897 190.2715049 52.91630577 202.32192674 52.96495028 C210.57725437 52.99658417 218.8324229 53.00627067 227.08780679 52.99845974 C231.85599003 52.99460388 236.62363687 53.00065257 241.39172554 53.03268433 C245.75305124 53.06177062 250.11347722 53.06343145 254.47484335 53.04284485 C256.05634874 53.04029864 257.63790908 53.04800631 259.21930543 53.06675057 C261.36307226 53.09069238 263.50355447 53.07795074 265.64726639 53.05573845 C267.43574914 53.05915593 267.43574914 53.05915593 269.26036286 53.06264246 C272.56627148 52.57871904 272.56627148 52.57871904 274.55448508 49.35382807 C275.12294284 48.3518238 275.6914006 47.34981952 276.27708435 46.31745148 C278.4684906 44.99713898 278.4684906 44.99713898 280.83958435 44.19245148 C281.7109906 43.88049835 282.58239685 43.56854523 283.48020935 43.24713898 C284.4031781 42.9403421 285.32614685 42.63354523 286.27708435 42.31745148 C294.59783536 39.49195581 299.95406505 37.0363199 305.77708435 30.31745148 C312.51471632 22.60084734 312.51471632 22.60084734 316.6091156 21.94245148 C323.16488755 21.6423303 328.42330318 23.16969907 334.52708435 25.42682648 C338.0044849 26.55303007 340.66548111 26.64577904 344.27708435 26.31745148 C343.94708435 23.01745148 343.61708435 19.71745148 343.27708435 16.31745148 C310.36269136 16.05733417 277.44826413 15.80216284 244.53378584 15.55308694 C240.56874251 15.52307802 236.60369947 15.49303062 232.63865662 15.46295929 C231.84991849 15.45697806 231.06118036 15.45099683 230.24854108 15.44483435 C219.31649229 15.36185458 208.38446114 15.27683582 197.4524418 15.19006646 C134.27723147 14.68868466 71.10286387 14.2216331 7.92536902 14.19451523 C4.26994893 14.19249291 0.61453421 14.18875882 -3.04088402 14.18460846 C-25.19940854 14.16253036 -47.35037903 14.19939254 -69.50294495 14.75885773 Z M-150.09791565 19.81745148 C-151.30281647 19.94017426 -151.30281647 19.94017426 -152.53205872 20.06537628 C-175.41218508 22.43871033 -198.06353983 26.41448264 -220.72291565 30.31745148 C-220.85650248 38.10930054 -220.9870048 45.90119552 -221.11406708 53.69315338 C-221.17321988 57.31534017 -221.23325156 60.93750687 -221.29566956 64.55963898 C-221.6495775 85.14765382 -221.79104956 105.72633582 -221.72291565 126.31745148 C-219.51195753 125.2392308 -217.30424259 124.15507743 -215.09791565 123.06745148 C-214.17172424 122.61692413 -214.17172424 122.61692413 -213.2268219 122.15729523 C-207.19084785 119.18837498 -207.19084785 119.18837498 -201.72291565 115.31745148 C-200.85885546 112.39442778 -200.85885546 112.39442778 -201.04176331 109.08014679 C-201.04244308 107.18863892 -201.04244308 107.18863892 -201.0431366 105.25891876 C-201.07377426 103.88779015 -201.1050702 102.51667611 -201.13697815 101.14557648 C-201.14817382 99.73883626 -201.15671226 98.3320726 -201.16270447 96.9253006 C-201.18557501 93.22900139 -201.24447869 89.53412493 -201.31092834 85.83838654 C-201.37239173 82.0646769 -201.39972787 78.29073651 -201.4299469 74.51667023 C-201.49422729 67.11628315 -201.59658075 59.71706693 -201.72291565 52.31745148 C-200.95505737 52.33077515 -200.1871991 52.34409882 -199.39607239 52.35782623 C-192.15705811 52.47808609 -184.91852853 52.5694156 -177.67877579 52.62832451 C-173.95672726 52.65962906 -170.23550449 52.70208162 -166.51393127 52.7700882 C-162.92177482 52.8353185 -159.33041207 52.87116412 -155.73770905 52.88671494 C-154.36767325 52.8977953 -152.99768059 52.91943427 -151.62798309 52.95183182 C-147.59468785 53.0434308 -143.6941242 53.07049391 -139.72291565 52.31745148 C-136.79080834 49.70409502 -136.79080834 49.70409502 -135.72291565 46.31745148 C-135.19568909 45.19209991 -134.66846252 44.06674835 -134.1252594 42.90729523 C-130.86457215 34.77731501 -128.38184043 26.94677072 -126.72291565 18.31745148 C-134.5749607 18.2217716 -142.29934358 19.0151676 -150.09791565 19.81745148 Z M-212.22291565 139.25495148 C-213.11623596 139.60879913 -214.00955627 139.96264679 -214.9299469 140.3272171 C-215.77943909 140.70426788 -216.62893127 141.08131866 -217.50416565 141.46979523 C-218.28856018 141.79971466 -219.07295471 142.12963409 -219.88111877 142.46955109 C-222.0632888 144.65895259 -222.03768884 145.39948562 -222.31471252 148.39559174 C-222.38958138 149.20503518 -222.46445023 150.01447863 -222.54158783 150.84845066 C-222.81244322 154.53647923 -222.98191081 158.21914758 -223.09596252 161.91510773 C-223.13768868 163.13204016 -223.13768868 163.13204016 -223.1802578 164.37355709 C-223.27082124 167.04225299 -223.35633597 169.71108351 -223.44166565 172.37995148 C-223.50458641 174.27205442 -223.56775279 176.16414921 -223.63114929 178.05623627 C-223.79890984 183.09883018 -223.96170807 188.14157129 -224.12276459 193.18438339 C-224.22340745 196.33283656 -224.32496478 199.48125916 -224.42671204 202.62967682 C-226.36899776 262.85458614 -227.1132876 323.06612746 -227.72291565 383.31745148 C-227.14847717 383.54408478 -226.5740387 383.77071808 -225.98219299 384.00421906 C-223.35299008 385.04334489 -220.72544929 386.08661232 -218.09791565 387.12995148 C-217.19428284 387.48637726 -216.29065002 387.84280304 -215.3596344 388.2100296 C-214.47662659 388.56129913 -213.59361877 388.91256866 -212.68385315 389.27448273 C-211.87738342 389.59392853 -211.0709137 389.91337433 -210.24000549 390.24250031 C-207.34565559 391.47856458 -204.53789221 392.9099632 -201.72291565 394.31745148 C-201.72291565 308.84745148 -201.72291565 223.37745148 -201.72291565 135.31745148 C-205.15175641 135.31745148 -209.13507316 137.91153949 -212.22291565 139.25495148 Z M435.27708435 139.31745148 C435.20120667 165.26442751 435.40953234 191.20527764 435.68094254 217.15066385 C435.73825216 222.66513984 435.79356046 228.17963595 435.84910583 233.69412994 C435.95397968 244.07697359 436.06058228 254.4597987 436.16784954 264.84261787 C436.29014346 276.68839077 436.41044384 288.53418367 436.53059959 300.37997842 C436.77725282 324.69249188 437.02633534 349.00497994 437.27708435 373.31745148 C437.87343185 373.11697708 438.46977936 372.91650269 439.084198 372.70995331 C446.96876521 370.06869406 446.96876521 370.06869406 450.8747406 368.93073273 C451.61272888 368.71481476 452.35071716 368.49889679 453.11106873 368.27643585 C453.84647888 368.06309601 454.58188904 367.84975616 455.33958435 367.62995148 C456.49490662 367.29253937 456.49490662 367.29253937 457.67356873 366.94831085 C459.54096408 366.40317059 461.40895963 365.86008702 463.27708435 365.31745148 C463.63584265 303.8180623 462.41737803 242.54857749 459.21458435 181.12995148 C459.17049942 180.27942074 459.12641449 179.42889 459.08099365 178.5525856 C458.82826471 173.68524209 458.56978679 168.81826738 458.30205727 163.95172501 C458.22089226 162.46929869 458.14107763 160.98679777 458.06267357 159.50422287 C457.95487135 157.47794091 457.84064569 155.45200368 457.72605896 153.42609406 C457.66325241 152.28852158 457.60044586 151.1509491 457.53573608 149.97890472 C457.44034331 147.34513626 457.44034331 147.34513626 456.27708435 145.31745148 C453.8785578 144.56033335 451.52895535 143.90937468 449.08958435 143.31745148 C444.41823602 142.15075375 439.83839353 140.86652968 435.27708435 139.31745148 Z M456.0309906 380.43463898 C455.19374451 380.87678741 454.35649841 381.31893585 453.49388123 381.77448273 C452.18000427 382.47637726 452.18000427 382.47637726 450.83958435 383.19245148 C449.96753357 383.65264679 449.09548279 384.1128421 448.19700623 384.58698273 C444.78896928 386.3944735 441.48984505 388.17561101 438.27708435 390.31745148 C437.98536077 393.05203909 437.88843038 395.55995415 437.92063904 398.29621124 C437.91859467 399.12085373 437.91655029 399.94549622 437.91444397 400.79512787 C437.91142575 403.53326035 437.92995446 406.27079631 437.94895935 409.00885773 C437.9520173 410.91257834 437.95389315 412.81630119 437.95463562 414.72002411 C437.95924637 418.71913919 437.97369385 422.71805378 437.99583435 426.71710968 C438.02398323 431.82572619 438.03503204 436.93418384 438.03951645 442.04287052 C438.04469621 446.92738644 438.059237 451.81186303 438.07395935 456.69635773 C438.07678043 458.0842409 438.07678043 458.0842409 438.07965851 459.50016212 C438.08659499 462.144471 438.10026459 464.78866022 438.11595154 467.43292999 C438.11762833 468.5859259 438.11762833 468.5859259 438.11933899 469.76221466 C438.16067641 475.06933397 438.68383431 479.97820108 439.27708435 485.31745148 C415.18708435 484.98745148 391.09708435 484.65745148 366.27708435 484.31745148 C363.46103406 494.7227388 363.46103406 494.7227388 362.27708435 505.31745148 C373.36001436 505.46579867 384.39623703 505.02131651 395.46458435 504.50495148 C396.86432495 504.44067459 396.86432495 504.44067459 398.29234314 504.37509918 C411.39553153 503.76410656 424.46266756 502.93580563 437.52708435 501.75495148 C438.58951859 501.65904221 438.58951859 501.65904221 439.67341614 501.56119537 C446.23594244 500.96113742 452.75723123 500.28326015 459.27708435 499.31745148 C459.97971719 490.20403055 460.50330186 481.1047491 460.8122406 471.96979523 C460.87684227 470.11562233 460.87684227 470.11562233 460.94274902 468.22399139 C461.05595091 464.9155987 461.16603282 461.60712894 461.27327728 458.29853821 C461.3399685 456.2431119 461.40773333 454.18772263 461.47550964 452.13233185 C462.27979048 427.52447611 462.52539218 402.93812733 462.27708435 378.31745148 C459.6833151 378.31745148 458.32283272 379.21993615 456.0309906 380.43463898 Z M-227.72291565 397.31745148 C-229.02189287 408.54401695 -228.85037015 419.76853117 -228.8205719 431.05182648 C-228.81870358 433.14217851 -228.81728163 435.23253098 -228.81628418 437.32288361 C-228.81249161 442.7873534 -228.80268967 448.25179602 -228.7915802 453.71625519 C-228.78129548 459.30727521 -228.77677152 464.89829969 -228.77174377 470.48932648 C-228.76106405 481.43204666 -228.74402744 492.37474679 -228.72291565 503.31745148 C-218.26747862 503.43139516 -207.89020315 503.10644635 -197.4533844 502.47760773 C-195.95505234 502.3900669 -194.45670503 502.3027868 -192.95834351 502.21575165 C-189.8548707 502.03448071 -186.75160327 501.85010329 -183.64845276 501.66339874 C-179.66874133 501.42421485 -175.68860778 501.19308444 -171.70829296 500.96418858 C-168.63099232 500.78635019 -165.55394906 500.6043471 -162.47696877 500.42105675 C-161.00779621 500.33404663 -159.53854581 500.24834063 -158.06921959 500.16396523 C-156.0306024 500.0462784 -153.99234672 499.92237832 -151.95411682 499.79816437 C-150.79578842 499.72932541 -149.63746002 499.66048645 -148.44403076 499.58956146 C-145.75975019 499.48420035 -145.75975019 499.48420035 -143.72291565 498.31745148 C-145.13874042 490.72348224 -147.24803668 483.246587 -150.72291565 476.31745148 C-153.62731326 475.34931894 -155.45109805 475.19600314 -158.46974182 475.20392609 C-159.43051132 475.20400162 -160.39128082 475.20407715 -161.38116455 475.20415497 C-162.4156221 475.20931625 -163.45007965 475.21447754 -164.5158844 475.21979523 C-165.57704971 475.22121017 -166.63821503 475.22262512 -167.73153687 475.22408295 C-171.124525 475.22968541 -174.51744742 475.24223834 -177.91041565 475.25495148 C-180.20924282 475.25996616 -182.50807103 475.26452912 -184.80690002 475.26862335 C-190.44559436 475.27965564 -196.08425031 475.29639618 -201.72291565 475.31745148 C-201.69848892 474.54594757 -201.67406219 473.77444366 -201.64889526 472.97956085 C-201.42782674 465.68312521 -201.26070154 458.38832755 -201.15298176 451.08940887 C-201.09573413 447.33730195 -201.01821125 443.58797657 -200.89308167 439.83747101 C-200.7729134 436.21268537 -200.70766753 432.59056041 -200.67926598 428.96393585 C-200.65904985 427.58574263 -200.61956263 426.20768403 -200.55988503 424.83063507 C-200.1543214 416.58546138 -200.1543214 416.58546138 -204.10971069 409.71857452 C-206.89933436 407.66255787 -209.66810233 405.94699325 -212.72291565 404.31745148 C-213.40848541 403.90398468 -214.09405518 403.49051788 -214.80039978 403.06452179 C-216.42832411 402.09009661 -218.10551176 401.19924793 -219.78541565 400.31745148 C-220.86951721 399.73995148 -221.95361877 399.16245148 -223.0705719 398.56745148 C-225.53575182 397.17534807 -225.53575182 397.17534807 -227.72291565 397.31745148 Z M-130.72291565 476.31745148 C-130.40776465 477.74455099 -130.09206522 479.1715294 -129.77613831 480.59845734 C-129.60039276 481.39311905 -129.42464722 482.18778076 -129.24357605 483.00652313 C-128.57445634 485.9763816 -127.8442289 488.9286218 -127.09791565 491.87995148 C-126.63958232 493.69245148 -126.18124898 495.50495148 -125.72291565 497.31745148 C-115.32247502 497.44370872 -104.9530002 497.26020453 -94.55885315 496.87995148 C-13.42791474 494.00207622 68.17519954 493.84386907 178.27708435 497.31745148 C179.61586925 497.3712868 180.95465506 497.42509938 182.29344177 497.47888947 C208.14639725 498.52371774 233.9806531 499.89299461 259.8122406 501.36432648 C260.99110682 501.43133947 260.99110682 501.43133947 262.19378853 501.49970627 C269.86529803 501.93593978 277.53662451 502.37438424 285.20686436 502.8324604 C300.4049633 503.73837017 315.59849954 504.50454014 330.81614685 504.99713898 C331.90937319 505.03472509 331.90937319 505.03472509 333.02468491 505.07307053 C335.06387355 505.14187282 337.10333973 505.20229827 339.14280701 505.2622757 C340.30607513 505.29747314 341.46934326 505.33267059 342.66786194 505.36893463 C345.20518108 505.62036135 345.20518108 505.62036135 346.27708435 504.31745148 C346.84386876 501.52758004 347.36062238 498.74747277 347.83958435 495.94245148 C347.97815857 495.1612796 348.11673279 494.38010773 348.25950623 493.57526398 C348.80731424 490.42334395 349.27708435 487.5262523 349.27708435 484.31745148 C328.41793661 483.30986757 307.55614674 482.95235894 286.67806089 482.60958493 C281.6558776 482.52648948 276.63375217 482.4400177 271.61161804 482.35401154 C261.80382313 482.1865877 251.99597865 482.0222672 242.18811182 481.85911637 C234.2003641 481.72618932 226.21263603 481.5921342 218.22492027 481.45730019 C216.51046989 481.42836213 216.51046989 481.42836213 214.76138416 481.39883946 C212.43829126 481.35962418 210.1151984 481.3204067 207.79210558 481.28118706 C186.06507551 480.91451754 164.33798669 480.55143169 142.61087617 480.18956573 C124.05123899 479.88036617 105.4916579 479.56796794 86.93211365 479.25324249 C65.29559425 478.88633968 43.65904055 478.52156679 22.02243108 478.16001183 C19.70457179 478.12127327 17.38671256 478.08253167 15.06885338 478.043787 C13.92894115 478.02473322 12.78902892 478.00567943 11.6145739 477.98604826 C3.66216043 477.85297766 -4.29022713 477.71842493 -12.24260521 477.58325768 C-21.97186144 477.41792513 -31.70115377 477.25493411 -41.43049618 477.09474974 C-46.37503154 477.01328643 -51.31954589 476.93089598 -56.26401711 476.84562111 C-81.08607191 476.4183869 -105.89716154 476.22985648 -130.72291565 476.31745148 Z " fill="#F7B20E" transform="translate(248.72291564941406,3.6825485229492188)"/>
<path d="M0 0 C4.1308356 0.00459242 8.26166634 0.0061942 12.39250422 0.00693583 C73.55765047 0.0194951 134.6631382 1.10035012 195.8039093 2.73763275 C212.26793322 3.17654647 228.73191679 3.55140057 245.19895935 3.85651398 C246.79257483 3.88612119 246.79257483 3.88612119 248.41838455 3.91632652 C253.66303662 4.01344739 258.90770905 4.10942149 264.15238953 4.2049942 C300.49282798 4.86958405 336.82216408 5.78199188 373.15208435 6.87995148 C374.76343262 6.92844238 374.76343262 6.92844238 376.40733337 6.9779129 C382.57758896 7.16379793 388.7477534 7.35236202 394.91780472 7.54491234 C396.76974871 7.60267975 398.6217048 7.66006103 400.47367477 7.71698952 C410.44158438 8.02488594 420.40736305 8.38038696 430.37132263 8.79767609 C431.31638609 8.83432908 432.26144955 8.87098207 433.23515129 8.90874577 C434.11210718 8.94713534 434.98906307 8.98552492 435.89259338 9.02507782 C437.05575671 9.07353804 437.05575671 9.07353804 438.24241829 9.12297726 C440.27708435 9.31745148 440.27708435 9.31745148 443.27708435 10.31745148 C443.27708435 11.96745148 443.27708435 13.61745148 443.27708435 15.31745148 C424.93974081 16.33981671 406.60428855 16.61593981 388.24424744 16.84967804 C384.2877099 16.90081794 380.33122882 16.95601027 376.3747406 17.01081085 C368.67557026 17.11687875 360.97635148 17.21862904 353.27708435 17.31745148 C354.26708435 19.29745148 355.25708435 21.27745148 356.27708435 23.31745148 C357.79302185 23.22463898 357.79302185 23.22463898 359.33958435 23.12995148 C364.31162719 23.36671542 368.12870909 24.28723686 371.83958435 27.79401398 C375.05375287 31.46017495 377.88598508 35.43620585 380.6872406 39.42292023 C386.27365997 46.0799556 394.87743696 51.00832131 403.52903748 51.89069366 C408.19396138 52.19315473 412.85423423 52.20199375 417.52708435 52.19245148 C419.15862663 52.21061938 420.79014166 52.23143474 422.4216156 52.25495148 C426.3737883 52.30625643 430.32459741 52.32192117 434.27708435 52.31745148 C435.12375714 67.23135889 435.55695562 82.13311843 435.83958435 97.06745148 C435.88293111 99.24063402 435.92654951 101.41381117 435.97044373 103.58698273 C436.07627076 108.8304129 436.17657594 114.07390609 436.27708435 119.31745148 C442.21708435 121.62745148 448.15708435 123.93745148 454.27708435 126.31745148 C453.58242837 112.38815188 452.49994971 98.52183444 451.27708435 84.62995148 C448.08986462 48.23293772 448.08986462 48.23293772 448.09178162 31.19660187 C448.0895406 28.96131518 448.07113196 26.72648308 448.05247498 24.4912796 C448.04954947 23.0622448 448.04755905 21.63320771 448.0466156 20.20417023 C448.04250671 18.92759552 448.03839783 17.65102081 448.03416443 16.33576202 C448.27708435 13.31745148 448.27708435 13.31745148 450.27708435 11.31745148 C453.40208435 11.69245148 453.40208435 11.69245148 456.27708435 12.31745148 C462.53010156 34.23016503 465.08078996 56.81238054 467.2419281 79.44635773 C467.32643156 80.3215399 467.41093502 81.19672207 467.49799919 82.09842491 C469.31540275 100.97438706 470.80627437 119.87017384 472.1544075 138.78487396 C472.34371182 141.43779407 472.53482696 144.09057961 472.72615051 146.7433548 C475.15874639 180.57763702 477.01700681 214.418335 478.27708435 248.31745148 C478.32208069 249.51166718 478.36707703 250.70588287 478.41343689 251.93628693 C479.23332513 274.10084427 479.63387733 296.26529929 479.90208435 318.44245148 C479.91298599 319.33583599 479.92388763 320.2292205 479.93511963 321.14967728 C480.51613245 369.43182919 480.06089821 417.62999566 477.93609619 465.87184525 C477.84063948 468.04344776 477.74712974 470.21512863 477.65367126 472.38681793 C477.47914394 476.40078681 477.28799905 480.41377548 477.0934906 484.42682648 C477.04134903 485.60472244 476.98920746 486.78261841 476.93548584 487.99620819 C476.61017807 494.31173173 476.08558231 500.23965513 474.27708435 506.31745148 C471.25164102 508.3344137 470.66641053 508.57556244 467.27708435 508.50495148 C466.59645935 508.49850616 465.91583435 508.49206085 465.21458435 508.48542023 C463.27708435 508.31745148 463.27708435 508.31745148 460.27708435 507.31745148 C458.21148003 507.66658233 458.21148003 507.66658233 455.98020935 508.39167023 C455.11677917 508.64521271 454.253349 508.89875519 453.36375427 509.15998077 C452.4276532 509.43882111 451.49155212 509.71766144 450.52708435 510.00495148 C418.89674699 518.94345339 385.92844606 520.89907567 353.19761539 520.69630671 C351.06484482 520.68430184 348.93211593 520.67794172 346.79931831 520.67282486 C312.25567206 520.57801631 277.75810844 519.20843159 243.24950373 517.75824523 C228.25241999 517.12805376 213.25425749 516.52379296 198.25591063 515.92449832 C196.60318743 515.85843929 194.95046871 515.79226813 193.29775453 515.72598386 C144.00816042 513.75015941 94.63251662 511.85281386 45.29597855 512.11981201 C43.09488655 512.13053458 40.89381473 512.13690379 38.69270325 512.14221954 C8.88234764 512.21456644 -20.92123395 512.58210176 -50.72291565 513.31745148 C-51.92796753 513.34667694 -53.13301941 513.3759024 -54.37458801 513.40601349 C-87.87160023 514.2273576 -121.32406555 515.59664771 -154.78541565 517.31745148 C-155.6070369 517.35956882 -156.42865814 517.40168617 -157.275177 517.4450798 C-175.52608857 518.38212508 -193.76832628 519.38807765 -211.99795532 520.68061066 C-218.80249915 521.15677286 -225.59003849 521.50427161 -232.41041565 521.62995148 C-233.4834922 521.65696136 -233.4834922 521.65696136 -234.57824707 521.68451691 C-239.22656896 521.67558288 -239.22656896 521.67558288 -241.34822083 520.14473724 C-248.30652665 510.89554756 -245.00845227 489.84337465 -244.98854065 478.91510773 C-244.99066239 476.36982412 -244.99343612 473.82454098 -244.99681091 471.27925873 C-245.00243206 464.41206127 -244.99360561 457.54496373 -244.98046112 450.67778015 C-244.97235993 446.35851414 -244.96873057 442.0392503 -244.9655304 437.71997833 C-244.91775263 380.64555465 -244.11559112 323.59345437 -242.9333725 266.53106213 C-242.77205589 258.7444557 -242.61624798 250.95775833 -242.46412659 243.1709671 C-239.72388346 103.31707411 -239.72388346 103.31707411 -233.09791565 35.00495148 C-232.98713684 33.85067657 -232.87635803 32.69640167 -232.76222229 31.50714874 C-232.23720343 26.52591029 -231.61092122 22.0051918 -229.72291565 17.31745148 C-153.0763192 4.50479777 -77.65530669 -0.08774348 0 0 Z M-69.50294495 14.75885773 C-70.67409361 14.78758028 -70.67409361 14.78758028 -71.86890185 14.81688309 C-85.52809037 15.16358319 -99.11816258 16.02668151 -112.72291565 17.31745148 C-112.82314026 17.89599884 -112.92336487 18.4745462 -113.02662659 19.07062531 C-117.06245889 42.06617548 -124.97207254 61.31049459 -138.72291565 80.31745148 C-139.41127502 81.30229523 -140.0996344 82.28713898 -140.80885315 83.30182648 C-155.23492806 103.0945982 -173.69758154 118.07086125 -194.72291565 130.31745148 C-195.36406311 130.69144073 -196.00521057 131.06542999 -196.66578674 131.45075226 C-198.7215272 132.64439212 -200.7829876 133.82728202 -202.84791565 135.00495148 C-203.52145081 135.3905423 -204.19498596 135.77613312 -204.88893127 136.17340851 C-209.68541236 138.86762703 -214.53266289 140.97155789 -219.7815094 142.66120148 C-222.16066707 144.6909054 -222.04662637 145.35649406 -222.32093811 148.38361359 C-222.43189316 149.60037277 -222.43189316 149.60037277 -222.54508972 150.84171295 C-222.8101622 154.53212049 -222.98184915 158.21714618 -223.09596252 161.91510773 C-223.12377996 162.72640168 -223.1515974 163.53769564 -223.1802578 164.37357426 C-223.27082058 167.04226445 -223.35633509 169.71108927 -223.44166565 172.37995148 C-223.50458619 174.27196287 -223.56775257 176.16396611 -223.63114929 178.05596161 C-223.79891528 183.09851213 -223.96171696 188.14120986 -224.12276459 193.18397903 C-224.22342021 196.33323795 -224.32497481 199.48246684 -224.42671204 202.63169098 C-226.38973922 263.52271548 -227.12133934 324.39954825 -227.72291565 385.31745148 C-227.19382599 385.50462738 -226.66473633 385.69180328 -226.11961365 385.88465118 C-223.66963687 386.75606099 -221.22367009 387.63825413 -218.77760315 388.52057648 C-217.52983093 388.96167755 -217.52983093 388.96167755 -216.2568512 389.41168976 C-201.80525029 394.65276622 -190.03268158 403.08480611 -178.72291565 413.31745148 C-177.32838073 414.50647599 -175.93272418 415.69418767 -174.53541565 416.87995148 C-173.25694525 418.01725743 -171.98639175 419.1635106 -170.72291565 420.31745148 C-169.60916565 421.3325882 -169.60916565 421.3325882 -168.47291565 422.36823273 C-147.38263594 442.47835521 -132.44051011 469.07218137 -125.72291565 497.31745148 C-115.32247502 497.44370872 -104.9530002 497.26020453 -94.55885315 496.87995148 C-13.42791474 494.00207622 68.17519954 493.84386907 178.27708435 497.31745148 C179.61586925 497.3712868 180.95465506 497.42509938 182.29344177 497.47888947 C208.14639725 498.52371774 233.9806531 499.89299461 259.8122406 501.36432648 C260.59815142 501.40900181 261.38406223 501.45367714 262.19378853 501.49970627 C269.86529803 501.93593978 277.53662451 502.37438424 285.20686436 502.8324604 C300.4049633 503.73837017 315.59849954 504.50454014 330.81614685 504.99713898 C331.54496441 505.02219639 332.27378197 505.0472538 333.02468491 505.07307053 C335.06387355 505.14187282 337.10333973 505.20229827 339.14280701 505.2622757 C340.8877092 505.31507187 340.8877092 505.31507187 342.66786194 505.36893463 C345.20518108 505.62036135 345.20518108 505.62036135 346.27708435 504.31745148 C346.53674401 502.66507184 346.79145106 501.01178685 347.02342224 499.35529327 C352.97197174 458.66170254 379.02751336 417.30236889 411.5388031 392.30963898 C426.16592217 381.66794037 440.7245372 373.14798898 458.27708435 368.31745148 C460.27904347 367.6566912 462.27930859 366.99075413 464.27708435 366.31745148 C464.30297224 359.63614505 464.32016963 352.95485205 464.33201599 346.27350616 C464.33696748 344.01243354 464.34373042 341.75136398 464.3525238 339.49030304 C464.40030426 326.86501994 464.2758343 314.28258634 463.68635559 301.67017365 C463.31420472 293.63233358 463.07823267 285.59579442 462.8825531 277.55182648 C462.1004359 246.24073821 461.00294077 214.9670653 459.34959793 183.68862152 C459.21456663 181.1296156 459.08120944 178.5705264 458.94807434 176.0114212 C458.73815379 171.99224545 458.52259387 167.97341272 458.30199432 163.95480919 C458.22091086 162.47107135 458.14112241 160.98726211 458.06269073 159.50338173 C457.95489685 157.47737935 457.84065936 155.45172282 457.72605896 153.42609406 C457.66325241 152.28852158 457.60044586 151.1509491 457.53573608 149.97890472 C457.44034331 147.34513626 457.44034331 147.34513626 456.27708435 145.31745148 C454.16918076 144.73124774 452.0385753 144.22643722 449.90208435 143.75495148 C435.9207237 140.3218606 423.18491103 133.65545545 411.8434906 124.87213898 C409.45628588 123.10246624 409.45628588 123.10246624 407.0309906 123.41120148 C404.61730741 124.65836072 403.88127105 126.34853755 402.92552185 128.82526398 C402.06527024 132.13153222 401.68666245 135.426682 401.27708435 138.81745148 C399.97732707 149.2670874 399.97732707 149.2670874 397.27708435 153.31745148 C392.56396849 156.78130771 386.88288343 158.13190392 381.2809906 159.50885773 C380.61970154 159.77569366 379.95841248 160.0425296 379.27708435 160.31745148 C377.80396699 164.73680356 379.8902655 167.79903086 381.66770935 171.87213898 C382.03935211 172.74476379 382.41099487 173.61738861 382.79389954 174.5164566 C384.02950264 177.41230307 385.27835776 180.30224269 386.52708435 183.19245148 C387.39120268 185.21155512 388.25430739 187.23109283 389.11643982 189.25104523 C390.91904083 193.47244441 392.72607345 197.69190742 394.53587341 201.91022491 C397.19792624 208.12278156 399.83243805 214.34669302 402.45677185 220.57526398 C403.08301453 222.06157822 403.08301453 222.06157822 403.72190857 223.57791901 C404.54834796 225.54004647 405.37464424 227.50223422 406.20079041 229.46448517 C408.10166276 233.97888799 410.00490887 238.49228396 411.90989685 243.00495148 C412.26455017 243.8461554 412.61920349 244.68735931 412.98460388 245.55405426 C414.91283793 250.11964772 416.86068534 254.67600779 418.83079529 259.22370148 C419.45798965 260.67450104 419.45798965 260.67450104 420.09785461 262.15460968 C420.90499857 264.01910764 421.71519994 265.88228577 422.52882385 267.74396515 C423.06912735 268.99270416 423.06912735 268.99270416 423.62034607 270.26667023 C423.94090973 271.00232208 424.26147339 271.73797394 424.5917511 272.49591827 C425.27708435 274.31745148 425.27708435 274.31745148 425.27708435 276.31745148 C424.38924255 275.71682892 423.50140076 275.11620636 422.58665466 274.49738312 C419.2881781 272.26820689 415.98459694 270.04670018 412.6794281 267.82746124 C411.25029097 266.86632762 409.82254217 265.90312624 408.39622498 264.93781281 C406.34451464 263.54976504 404.28790835 262.16925696 402.23020935 260.79010773 C401.59464111 260.35779343 400.95907288 259.92547913 400.304245 259.48006439 C397.30923538 257.48276327 394.79318684 256.0563482 391.27708435 255.31745148 C389.51690496 260.18793691 387.75707524 265.0585485 385.99754333 269.92926788 C385.40128086 271.57969164 384.80492951 273.23008329 384.20848083 274.88043976 C383.62899724 276.48388889 383.04964089 278.08738401 382.47041321 279.6909256 C381.89741028 281.27717506 381.3241083 282.86331652 380.75050354 284.44934845 C379.4110277 288.15712734 378.07956817 291.86728859 376.77073669 295.58600616 C376.54021103 296.23922852 376.30968536 296.89245087 376.07217407 297.56546783 C375.45543435 299.31644431 374.84208818 301.06861505 374.22898865 302.82086945 C373.27708435 305.31745148 373.27708435 305.31745148 372.27708435 306.31745148 C368.31708435 295.92245148 368.31708435 295.92245148 364.27708435 285.31745148 C354.54744909 285.18312878 345.12745492 285.53136713 335.4360199 286.54288483 C331.96011366 286.90529739 328.48186836 287.24372596 325.00364685 287.58307648 C324.33009155 287.6492366 323.65653625 287.71539673 322.96257019 287.78356171 C315.41088564 288.51568872 307.85627816 288.98643247 300.27708435 289.31745148 C299.94708435 290.96745148 299.61708435 292.61745148 299.27708435 294.31745148 C298.61708435 294.31745148 297.95708435 294.31745148 297.27708435 294.31745148 C297.27708435 292.66745148 297.27708435 291.01745148 297.27708435 289.31745148 C294.06877175 289.2876003 290.86049615 289.27037653 287.65208435 289.25495148 C286.76778748 289.24657257 285.8834906 289.23819366 284.97239685 289.22956085 C280.06901199 289.21204876 275.23935779 289.37517819 270.35325623 289.79230499 C259.94745873 290.55545334 249.52662995 290.6464702 239.09739685 290.81745148 C236.78090563 290.85789559 234.46441808 290.89855079 232.14793396 290.93939972 C225.87903444 291.04849382 219.61005192 291.15177118 213.34102631 291.25333405 C209.37208175 291.31793985 205.40316384 291.3840584 201.43424988 291.45050812 C159.6304788 292.14813955 117.82805602 292.57864301 76.01933289 292.86869049 C47.3295599 293.06898261 18.64330138 293.34904739 -10.04322815 293.82135773 C-11.07770907 293.83838501 -11.07770907 293.83838501 -12.13308859 293.85575628 C-27.41964657 294.10813706 -42.7058599 294.37849859 -57.99195862 294.65729523 C-99.58402628 295.41357739 -99.58402628 295.41357739 -114.62715149 295.48941612 C-116.5668325 295.50050999 -118.50645601 295.52057741 -120.44606018 295.54109955 C-126.53526637 295.54930931 -131.95356134 295.3681436 -137.72291565 293.31745148 C-140.02455447 289.86499324 -140.06781887 288.37006435 -139.72291565 284.31745148 C-131.66263444 276.25717026 -106.77704199 279.97368398 -96.3440094 279.93854523 C-93.72922731 279.92262073 -91.11445055 279.90579919 -88.49967957 279.88814545 C-82.94147287 279.8517641 -77.38326435 279.82183444 -71.82499695 279.79645538 C-63.09290166 279.75639355 -54.3609225 279.70228858 -45.62892151 279.64557648 C-42.68618799 279.62658636 -39.74345412 279.60765237 -36.80072021 279.58872223 C-36.07216389 279.58402109 -35.34360756 279.57931996 -34.59297377 279.57447636 C-29.43079529 279.54129699 -24.26860814 279.50981366 -19.10641479 279.47904205 C5.69296834 279.33049141 30.49142146 279.11792366 55.28980637 278.8491478 C58.22343891 278.81735552 61.15707598 278.78600567 64.0907135 278.75467682 C85.46021629 278.52483976 106.82645207 278.24900288 128.19178772 277.75595856 C151.59209967 277.2179434 174.99731307 277.00629522 198.40208435 276.75495148 C199.44175858 276.74378296 200.4814328 276.73261444 201.5526123 276.72110748 C214.46073114 276.58278756 227.36888814 276.44834303 240.27708435 276.31745148 C242.55799519 270.92493237 244.83659567 265.53144537 247.11302185 260.13703156 C247.88842202 258.30049756 248.66446272 256.46423386 249.44114685 254.62824249 C250.5547962 251.99539929 251.66616902 249.36160549 252.77708435 246.72760773 C253.30205505 245.48854424 253.30205505 245.48854424 253.83763123 244.22444916 C255.5206646 240.87560203 255.5206646 240.87560203 256.27708435 237.31745148 C246.56438352 237.76228127 236.87446572 238.31062379 227.1872406 239.14948273 C159.43627852 244.90054666 91.23070372 246.10223225 23.27708435 247.56745148 C22.32702263 247.58820992 21.37696091 247.60896835 20.39810944 247.63035583 C1.36801828 248.04492203 -17.66427218 248.38742496 -36.69902039 248.47659302 C-38.28064496 248.48498836 -39.86225632 248.49655764 -41.4438324 248.51152039 C-43.60726855 248.53070443 -45.77034198 248.53682499 -47.93385315 248.53913116 C-49.15378967 248.54483124 -50.3737262 248.55053131 -51.63063049 248.55640411 C-54.61016947 248.3261638 -56.25912707 247.95533986 -58.72291565 246.31745148 C-60.77002635 243.34914097 -61.09800371 240.88078808 -60.72291565 237.31745148 C-56.50487376 233.09940959 -49.69342248 234.12000516 -44.06520081 234.03620148 C-43.09679764 234.0181546 -42.12839447 234.00010773 -41.13064575 233.98151398 C-37.92448261 233.92271058 -34.71824633 233.87018692 -31.51197815 233.81745148 C-29.26492969 233.77691334 -27.01788994 233.73588985 -24.77085876 233.6944046 C-18.83841629 233.58580136 -12.90589948 233.48211137 -6.9733429 233.37995148 C2.45614473 233.21739326 11.88554017 233.05010984 21.31485367 232.87775421 C24.57504199 232.81925445 27.83527706 232.76447197 31.09553528 232.7100296 C43.13584645 232.49897479 55.15506808 232.11392942 67.1837616 231.54265594 C74.3630244 231.2083872 81.54595223 231.07186593 88.73106384 230.92902374 C105.17278053 230.59576251 121.59720481 230.01769488 138.02708435 229.31745148 C179.09929745 227.58164387 220.17547223 226.927395 261.27708435 226.31745148 C264.19013 219.48421802 267.10264237 212.65075752 270.01450634 205.81702042 C271.36715973 202.64257682 272.71998484 199.46820666 274.07322693 196.29401398 C275.6352064 192.63018035 277.19639478 188.96601007 278.7575531 185.30182648 C279.47348885 183.62295349 279.47348885 183.62295349 280.20388794 181.91016388 C281.11767812 179.7647826 282.02892004 177.61831374 282.93733215 175.47064972 C283.85830662 173.30307344 284.79061494 171.14028881 285.73231506 168.98163605 C286.19092926 167.9171524 286.64954346 166.85266876 287.12205505 165.75592804 C287.53631241 164.80574799 287.95056976 163.85556793 288.37738037 162.87659454 C289.49819436 160.1406348 289.49819436 160.1406348 289.27708435 156.31745148 C288.18009216 155.79795929 287.08309998 155.2784671 285.9528656 154.74323273 C284.49817492 154.03935014 283.04376242 153.33489246 281.58958435 152.62995148 C280.86835388 152.29028351 280.14712341 151.95061554 279.40403748 151.6006546 C274.84377988 149.37258354 271.65661176 147.11053482 268.27708435 143.31745148 C267.94708435 142.98745148 267.61708435 142.65745148 267.27708435 142.31745148 C267.20437488 140.67696765 267.19273859 139.03370461 267.20677185 137.39167023 C267.13654169 124.87784244 266.89322055 116.53679359 259.27708435 106.31745148 C256.896293 101.31388671 256.34619102 96.78032551 257.27708435 91.31745148 C259.24265392 87.2710893 261.98225292 83.82343048 264.9059906 80.42292023 C269.56465568 74.5032631 270.39786914 68.53668886 271.25242615 61.23200226 C272.64298404 49.62149584 272.64298404 49.62149584 276.8981781 45.89948273 C277.49759216 45.64553741 278.09700623 45.3915921 278.71458435 45.12995148 C279.76259216 44.67362335 279.76259216 44.67362335 280.83177185 44.20807648 C283.6445094 43.18362894 286.48511382 42.28136322 289.33958435 41.37995148 C298.50245875 38.39856395 303.12205773 33.50832404 309.27708435 26.31745148 C311.64270591 23.68898308 313.10784777 22.50546942 316.6091156 21.94245148 C323.16488755 21.6423303 328.42330318 23.16969907 334.52708435 25.42682648 C338.0044849 26.55303007 340.66548111 26.64577904 344.27708435 26.31745148 C343.94708435 23.01745148 343.61708435 19.71745148 343.27708435 16.31745148 C310.36269136 16.05733417 277.44826413 15.80216284 244.53378584 15.55308694 C240.56874251 15.52307802 236.60369947 15.49303062 232.63865662 15.46295929 C231.84991849 15.45697806 231.06118036 15.45099683 230.24854108 15.44483435 C219.31649229 15.36185458 208.38446114 15.27683582 197.4524418 15.19006646 C134.27723147 14.68868466 71.10286387 14.2216331 7.92536902 14.19451523 C4.26994893 14.19249291 0.61453421 14.18875882 -3.04088402 14.18460846 C-25.19940854 14.16253036 -47.35037903 14.19939254 -69.50294495 14.75885773 Z M-150.09791565 19.81745148 C-151.30281647 19.94017426 -151.30281647 19.94017426 -152.53205872 20.06537628 C-175.41218508 22.43871033 -198.06353983 26.41448264 -220.72291565 30.31745148 C-220.85650248 38.10930054 -220.9870048 45.90119552 -221.11406708 53.69315338 C-221.17321988 57.31534017 -221.23325156 60.93750687 -221.29566956 64.55963898 C-221.6495775 85.14765382 -221.79104956 105.72633582 -221.72291565 126.31745148 C-219.51195753 125.2392308 -217.30424259 124.15507743 -215.09791565 123.06745148 C-214.17172424 122.61692413 -214.17172424 122.61692413 -213.2268219 122.15729523 C-207.19084785 119.18837498 -207.19084785 119.18837498 -201.72291565 115.31745148 C-200.85885546 112.39442778 -200.85885546 112.39442778 -201.04176331 109.08014679 C-201.04244308 107.18863892 -201.04244308 107.18863892 -201.0431366 105.25891876 C-201.07377426 103.88779015 -201.1050702 102.51667611 -201.13697815 101.14557648 C-201.14817382 99.73883626 -201.15671226 98.3320726 -201.16270447 96.9253006 C-201.18557501 93.22900139 -201.24447869 89.53412493 -201.31092834 85.83838654 C-201.37239173 82.0646769 -201.39972787 78.29073651 -201.4299469 74.51667023 C-201.49422729 67.11628315 -201.59658075 59.71706693 -201.72291565 52.31745148 C-200.95505737 52.33077515 -200.1871991 52.34409882 -199.39607239 52.35782623 C-192.15705811 52.47808609 -184.91852853 52.5694156 -177.67877579 52.62832451 C-173.95672726 52.65962906 -170.23550449 52.70208162 -166.51393127 52.7700882 C-162.92177482 52.8353185 -159.33041207 52.87116412 -155.73770905 52.88671494 C-154.36767325 52.8977953 -152.99768059 52.91943427 -151.62798309 52.95183182 C-147.59468785 53.0434308 -143.6941242 53.07049391 -139.72291565 52.31745148 C-136.79080834 49.70409502 -136.79080834 49.70409502 -135.72291565 46.31745148 C-135.19568909 45.19209991 -134.66846252 44.06674835 -134.1252594 42.90729523 C-130.86457215 34.77731501 -128.38184043 26.94677072 -126.72291565 18.31745148 C-134.5749607 18.2217716 -142.29934358 19.0151676 -150.09791565 19.81745148 Z M456.0309906 380.43463898 C455.19374451 380.87678741 454.35649841 381.31893585 453.49388123 381.77448273 C452.18000427 382.47637726 452.18000427 382.47637726 450.83958435 383.19245148 C449.96753357 383.65264679 449.09548279 384.1128421 448.19700623 384.58698273 C444.78896928 386.3944735 441.48984505 388.17561101 438.27708435 390.31745148 C437.98536077 393.05203909 437.88843038 395.55995415 437.92063904 398.29621124 C437.91859467 399.12085373 437.91655029 399.94549622 437.91444397 400.79512787 C437.91142575 403.53326035 437.92995446 406.27079631 437.94895935 409.00885773 C437.9520173 410.91257834 437.95389315 412.81630119 437.95463562 414.72002411 C437.95924637 418.71913919 437.97369385 422.71805378 437.99583435 426.71710968 C438.02398323 431.82572619 438.03503204 436.93418384 438.03951645 442.04287052 C438.04469621 446.92738644 438.059237 451.81186303 438.07395935 456.69635773 C438.07678043 458.0842409 438.07678043 458.0842409 438.07965851 459.50016212 C438.08659499 462.144471 438.10026459 464.78866022 438.11595154 467.43292999 C438.11762833 468.5859259 438.11762833 468.5859259 438.11933899 469.76221466 C438.16067641 475.06933397 438.68383431 479.97820108 439.27708435 485.31745148 C415.18708435 484.98745148 391.09708435 484.65745148 366.27708435 484.31745148 C363.46103406 494.7227388 363.46103406 494.7227388 362.27708435 505.31745148 C373.36001436 505.46579867 384.39623703 505.02131651 395.46458435 504.50495148 C396.86432495 504.44067459 396.86432495 504.44067459 398.29234314 504.37509918 C411.39553153 503.76410656 424.46266756 502.93580563 437.52708435 501.75495148 C438.58951859 501.65904221 438.58951859 501.65904221 439.67341614 501.56119537 C446.23594244 500.96113742 452.75723123 500.28326015 459.27708435 499.31745148 C459.97971719 490.20403055 460.50330186 481.1047491 460.8122406 471.96979523 C460.87684227 470.11562233 460.87684227 470.11562233 460.94274902 468.22399139 C461.05595091 464.9155987 461.16603282 461.60712894 461.27327728 458.29853821 C461.3399685 456.2431119 461.40773333 454.18772263 461.47550964 452.13233185 C462.27979048 427.52447611 462.52539218 402.93812733 462.27708435 378.31745148 C459.6833151 378.31745148 458.32283272 379.21993615 456.0309906 380.43463898 Z M-227.72291565 397.31745148 C-229.02189287 408.54401695 -228.85037015 419.76853117 -228.8205719 431.05182648 C-228.81870358 433.14217851 -228.81728163 435.23253098 -228.81628418 437.32288361 C-228.81249161 442.7873534 -228.80268967 448.25179602 -228.7915802 453.71625519 C-228.78129548 459.30727521 -228.77677152 464.89829969 -228.77174377 470.48932648 C-228.76106405 481.43204666 -228.74402744 492.37474679 -228.72291565 503.31745148 C-218.26747862 503.43139516 -207.89020315 503.10644635 -197.4533844 502.47760773 C-195.95505234 502.3900669 -194.45670503 502.3027868 -192.95834351 502.21575165 C-189.8548707 502.03448071 -186.75160327 501.85010329 -183.64845276 501.66339874 C-179.66874133 501.42421485 -175.68860778 501.19308444 -171.70829296 500.96418858 C-168.63099232 500.78635019 -165.55394906 500.6043471 -162.47696877 500.42105675 C-161.00779621 500.33404663 -159.53854581 500.24834063 -158.06921959 500.16396523 C-156.0306024 500.0462784 -153.99234672 499.92237832 -151.95411682 499.79816437 C-150.79578842 499.72932541 -149.63746002 499.66048645 -148.44403076 499.58956146 C-145.75975019 499.48420035 -145.75975019 499.48420035 -143.72291565 498.31745148 C-145.13874042 490.72348224 -147.24803668 483.246587 -150.72291565 476.31745148 C-153.62731326 475.34931894 -155.45109805 475.19600314 -158.46974182 475.20392609 C-159.43051132 475.20400162 -160.39128082 475.20407715 -161.38116455 475.20415497 C-162.4156221 475.20931625 -163.45007965 475.21447754 -164.5158844 475.21979523 C-165.57704971 475.22121017 -166.63821503 475.22262512 -167.73153687 475.22408295 C-171.124525 475.22968541 -174.51744742 475.24223834 -177.91041565 475.25495148 C-180.20924282 475.25996616 -182.50807103 475.26452912 -184.80690002 475.26862335 C-190.44559436 475.27965564 -196.08425031 475.29639618 -201.72291565 475.31745148 C-201.69848892 474.54594757 -201.67406219 473.77444366 -201.64889526 472.97956085 C-201.42782674 465.68312521 -201.26070154 458.38832755 -201.15298176 451.08940887 C-201.09573413 447.33730195 -201.01821125 443.58797657 -200.89308167 439.83747101 C-200.7729134 436.21268537 -200.70766753 432.59056041 -200.67926598 428.96393585 C-200.65904985 427.58574263 -200.61956263 426.20768403 -200.55988503 424.83063507 C-200.1543214 416.58546138 -200.1543214 416.58546138 -204.10971069 409.71857452 C-206.89933436 407.66255787 -209.66810233 405.94699325 -212.72291565 404.31745148 C-213.40848541 403.90398468 -214.09405518 403.49051788 -214.80039978 403.06452179 C-216.42832411 402.09009661 -218.10551176 401.19924793 -219.78541565 400.31745148 C-220.86951721 399.73995148 -221.95361877 399.16245148 -223.0705719 398.56745148 C-225.53575182 397.17534807 -225.53575182 397.17534807 -227.72291565 397.31745148 Z " fill="#354E99" transform="translate(248.72291564941406,3.6825485229492188)"/>
<path d="M0 0 C12.47529154 0.00450463 24.95057376 0.00366013 37.42586516 -0.00090924 C52.24617578 -0.00633569 67.06648099 -0.00832996 81.88679247 -0.00529698 C83.4828989 -0.0049787 85.07900533 -0.00466432 86.67511176 -0.00435391 C87.85046871 -0.0041225 87.85046871 -0.0041225 89.04957024 -0.00388641 C94.38827223 -0.00304792 99.72697049 -0.0044437 105.06567191 -0.00683346 C135.28021859 -0.01912569 165.48861475 0.07121747 195.69995964 0.54383039 C197.66288058 0.57447301 199.62581434 0.60429088 201.58874832 0.63408694 C214.79812308 0.83986591 228.00128084 1.13237133 241.20398711 1.60550556 C242.27559106 1.6431578 243.34719502 1.68081005 244.45127182 1.71960327 C273.73914532 2.83880358 273.73914532 2.83880358 278.67513274 6.12946185 C277.80013274 11.00446185 277.80013274 11.00446185 276.67513274 12.12946185 C265.198111 14.06676335 253.5845959 14.69082526 241.97505949 15.23453388 C241.11255727 15.27640954 240.25005504 15.3182852 239.36141638 15.36142983 C221.6815311 16.20976328 204.02546103 16.43958022 186.32795618 16.44613609 C182.03501198 16.44994184 177.74210291 16.46515317 173.44918059 16.4787508 C165.08579902 16.50357413 156.72242947 16.51855742 148.35902016 16.53006588 C138.50242579 16.54410256 128.64586685 16.56908682 118.78929619 16.59444918 C101.09435285 16.6396814 83.39940278 16.67634666 65.70442961 16.70758685 C48.78514542 16.73747379 31.86587993 16.77182451 14.94661711 16.81207904 C13.91143289 16.81453621 12.87624867 16.81699338 11.80969523 16.819525 C6.60215681 16.83189952 1.39461856 16.84434055 -3.81291963 16.85680875 C-30.09162879 16.91964587 -56.37033285 16.97969111 -82.64908601 17.02088031 C-84.09390069 17.02315251 -84.09390069 17.02315251 -85.56790353 17.02547061 C-94.08652062 17.03881966 -102.60513811 17.05188948 -111.12375642 17.06442747 C-132.95365868 17.09673322 -154.7832303 17.15041489 -176.61296178 17.24250302 C-183.59343892 17.27038448 -190.57394053 17.2907465 -197.55444671 17.30983683 C-203.60025237 17.3271119 -209.64581699 17.35647255 -215.69151403 17.39631233 C-219.20483426 17.41650495 -222.71809582 17.42471387 -226.23146822 17.4289237 C-227.79855454 17.43330647 -229.36563688 17.4428241 -230.93265535 17.45805177 C-233.00442792 17.47769163 -235.07541219 17.47932342 -237.14725496 17.47598895 C-238.28048441 17.48151971 -239.41371385 17.48705047 -240.58128358 17.49274883 C-243.32486726 17.12946185 -243.32486726 17.12946185 -245.15237428 15.81874141 C-247.1284012 12.97176328 -247.26598137 10.54484363 -247.32486726 7.12946185 C-245.23861387 3.70204556 -244.15043616 2.40465149 -240.32486726 1.12946185 C-237.76213113 1.00957741 -235.22477976 0.94531881 -232.66097261 0.92612323 C-231.86675926 0.91642478 -231.07254592 0.90672632 -230.2542655 0.89673397 C-227.56192753 0.86535367 -224.86957695 0.84127743 -222.17716219 0.81745014 C-220.22568301 0.79701475 -218.27420664 0.77630965 -216.32273294 0.75535831 C-210.90734878 0.69919255 -205.49192029 0.65071859 -200.07644297 0.60449609 C-196.59384792 0.57456821 -193.11126963 0.54308008 -189.62869073 0.51133212 C-126.42043508 -0.05670074 -63.21024762 -0.02327188 0 0 Z " fill="#2E4791" transform="translate(346.3248672634363,324.8705381453037)"/>
<path d="M0 0 C1.76791199 0.03642432 3.53732479 0.01420269 5.3046875 -0.04296875 C35.27978299 -0.73590191 35.27978299 -0.73590191 47 10 C55.78097211 20.37595337 59.40865877 31.76290006 59.3125 45.1875 C59.30512817 46.42415405 59.30512817 46.42415405 59.29760742 47.68579102 C59.02319583 62.19583178 55.564462 77.34540189 45.22265625 88.03515625 C36.45646308 95.78453264 24.71249119 100.5038908 13 101 C11.59427734 101.05994141 11.59427734 101.05994141 10.16015625 101.12109375 C-2.11123708 101.38416271 -12.95664922 98.95197947 -22.25 90.4375 C-34.8884717 76.95475792 -36.53966621 57.44247243 -36.24609375 39.828125 C-35.47829736 27.88462555 -32.19978841 18.86085727 -23.625 10.4375 C-19.66084584 7.15335669 -15.25136196 4.83185937 -10.6875 2.5 C-9.98125488 2.13704834 -9.27500977 1.77409668 -8.54736328 1.40014648 C-3.37529481 -1.12509827 -3.37529481 -1.12509827 0 0 Z " fill="#2A4693" transform="translate(575,51)"/>
<path d="M0 0 C0.33 31.35 0.66 62.7 1 95 C-12.6125 95.0309375 -12.6125 95.0309375 -26.5 95.0625 C-29.33013672 95.071604 -32.16027344 95.08070801 -35.07617188 95.09008789 C-47.4209886 95.11271214 -59.6952295 95.08191231 -72 94 C-63.80987402 57.47694772 -36.73301229 23.58577759 -6 3 C-1.19318182 0 -1.19318182 0 0 0 Z " fill="#F7B311" transform="translate(687,394)"/>
<path d="M0 0 C1.13501953 -0.020625 2.27003906 -0.04125 3.43945312 -0.0625 C17.7415418 -0.12776909 31.57635103 3.36300675 42.4375 13.125 C54.98609605 26.6546681 58.42510488 44.27433507 57.97265625 62.11328125 C57.18769201 79.99667159 50.33226302 96.65816715 37.35546875 109.11328125 C32.2766496 113.1807982 26.65162605 115.77722593 20.6875 118.25 C19.11935547 118.90355469 19.11935547 118.90355469 17.51953125 119.5703125 C9.83541868 122.24711664 2.52398386 122.62396775 -5.5625 122.6875 C-6.56845215 122.69773193 -7.5744043 122.70796387 -8.61083984 122.71850586 C-21.6540669 122.5650435 -33.42606681 117.95681317 -43.125 109.0625 C-55.44054704 95.5754741 -58.4783881 78.67342865 -58.5625 61.0625 C-58.583125 60.00224609 -58.60375 58.94199219 -58.625 57.84960938 C-58.69154619 44.19932227 -55.38985127 31.85757629 -45.9140625 21.671875 C-37.07524939 13.4585779 -26.60285483 6.29598765 -14.3125 5.25 C-14.168125 4.610625 -14.02375 3.97125 -13.875 3.3125 C-12.40847179 -2.06477012 -4.58654214 0.02008338 0 0 Z M-20.75854492 11.54858398 C-21.4569751 11.90380127 -22.15540527 12.25901855 -22.875 12.625 C-23.59083252 12.98859619 -24.30666504 13.35219238 -25.04418945 13.72680664 C-34.39922496 18.66731947 -42.46446389 25.11739836 -46.3125 35.25 C-51.4591717 52.32387914 -49.19334641 75.40098478 -41.3125 91.25 C-35.05623634 101.84842965 -26.21974298 107.9263714 -14.4375 111 C0.95739321 112.23159146 16.84144305 110.34791672 29.625 100.9375 C40.20995678 91.90061734 45.48055759 79.01249612 46.6875 65.25 C47.55458394 49.96065302 46.61028292 37.19162348 37.6875 24.25 C36.82125 22.88875 36.82125 22.88875 35.9375 21.5 C27.96091277 13.52341277 17.35614898 10.12044749 6.25 9.9921875 C4.06224099 10.02093941 1.87463404 10.0653273 -0.3125 10.125 C-2.52075433 10.1682991 -4.72909273 10.20755626 -6.9375 10.2421875 C-7.89914062 10.26651855 -8.86078125 10.29084961 -9.8515625 10.31591797 C-15.36662122 9.77944655 -15.36662122 9.77944655 -20.75854492 11.54858398 Z " fill="#F2B010" transform="translate(587.3125,40.75)"/>
<path d="M0 0 C7.43382389 4.22668815 12.7217031 9.96710086 15.90234375 17.953125 C18.19441942 26.7959258 17.12420458 35.61823825 12.5625 43.5 C8.08866954 50.08325311 2.28399785 54.67846191 -5.3515625 57.109375 C-13.61007103 58.65591218 -21.29713945 58.03419543 -28.4375 53.5 C-35.35531117 48.40720853 -40.09763703 42.89772854 -42.4375 34.5 C-43.18355178 26.05052989 -43.71138655 17.60147099 -38.4375 10.5 C-37.73625 9.46875 -37.035 8.4375 -36.3125 7.375 C-27.19252511 -3.02747136 -12.37306277 -5.76472243 0 0 Z " fill="#2B4693" transform="translate(395.4375,96.5)"/>
<path d="M0 0 C8.18049269 -0.10615875 16.36039494 -0.11962954 24.54147339 -0.12201309 C26.51106383 -0.12441927 28.48065429 -0.12682812 30.45024443 -0.12947351 C36.62681621 -0.1375417 42.80337349 -0.14006489 48.97994995 -0.13934708 C55.26233802 -0.13874859 61.5446396 -0.14927257 67.82700586 -0.16509074 C73.29871839 -0.17835529 78.77040332 -0.1835232 84.24213171 -0.18289167 C87.47551765 -0.18264207 90.70881146 -0.18617307 93.94218445 -0.19606972 C118.05724758 -0.2629733 141.93409602 1.2732882 165.88522339 4.04595566 C166.26741106 5.70210223 166.59917441 7.3705259 166.88522339 9.04595566 C164.77315278 11.15802627 160.37512173 10.70623814 157.45162964 10.98345566 C156.58569687 11.06845322 155.7197641 11.15345078 154.82759094 11.24102402 C152.97909249 11.42133807 151.13037391 11.59940688 149.28146362 11.77544785 C146.51789681 12.03925693 143.75526741 12.31151583 140.99264526 12.58501816 C103.37272299 16.26018375 65.51329192 16.27088846 27.74581909 16.34112167 C23.40453823 16.35015841 19.06355936 16.37149485 14.72238159 16.40264511 C9.38999387 16.44089697 4.05787887 16.45985912 -1.27464104 16.46440315 C-3.28456314 16.46926546 -5.29448101 16.48086925 -7.3043232 16.49944115 C-10.07814824 16.52360782 -12.85088995 16.52291662 -15.62478638 16.51592636 C-16.44576309 16.52873642 -17.26673981 16.54154648 -18.1125946 16.55474472 C-23.60803514 16.5039633 -23.60803514 16.5039633 -26.11805725 14.23533249 C-27.60034097 10.97937322 -27.55571802 8.57348694 -27.11477661 5.04595566 C-25.62002563 2.87342453 -25.62002563 2.87342453 -23.11477661 1.04595566 C-20.15861806 0.5756696 -17.56053365 0.35545805 -14.59329224 0.3064537 C-13.71942116 0.27794925 -12.84555008 0.24944479 -11.94519806 0.22007656 C-7.96395794 0.10528465 -3.98238276 0.05875639 0 0 Z " fill="#2D4792" transform="translate(298.1147766113281,181.95404434204102)"/>
<path d="M0 0 C0 13.65650601 -19.12001758 31.8554371 -28 41 C-30.56186253 43.47664465 -33.23224803 45.75691753 -36 48 C-36.87527344 48.72445312 -37.75054687 49.44890625 -38.65234375 50.1953125 C-72.13665595 77 -72.13665595 77 -84 77 C-84 70.4 -84 63.8 -84 57 C-83.67 57 -83.34 57 -83 57 C-82.67 62.94 -82.34 68.88 -82 75 C-76.06 71.7 -70.12 68.4 -64 65 C-63.67 44.21 -63.34 23.42 -63 2 C-32.0625 1.5625 -32.0625 1.5625 -22.28149414 1.43188477 C-19.7410423 1.39378154 -17.20059589 1.35531411 -14.66015625 1.31640625 C-13.99592148 1.30826401 -13.33168671 1.30012177 -12.64732361 1.29173279 C-10.69979757 1.26748523 -8.75235829 1.23654841 -6.80493164 1.20532227 C-5.15612755 1.18200584 -5.15612755 1.18200584 -3.47401428 1.15821838 C-1.05693927 1.27711808 -1.05693927 1.27711808 0 0 Z " fill="#F6B51B" transform="translate(110,54)"/>
<path d="M0 0 C2.77762405 1.38881203 2.88958452 2.83769124 3.96777344 5.72485352 C4.34867126 6.73423477 4.72956909 7.74361603 5.12200928 8.78358459 C5.53033997 9.88754074 5.93867065 10.99149689 6.359375 12.12890625 C6.78623596 13.26593491 7.21309692 14.40296356 7.65289307 15.57444763 C9.02525496 19.23467872 10.38774545 22.8984967 11.75 26.5625 C12.65299646 28.9761545 13.55663482 31.38956896 14.4609375 33.80273438 C16.20064792 38.4471754 17.93372031 43.09401083 19.66210938 47.74267578 C21.08014281 51.55146761 22.51371777 55.35299584 23.97851562 59.14404297 C24.26454651 59.88863266 24.55057739 60.63322235 24.84527588 61.40037537 C25.57459778 63.29345851 26.31088052 65.18385612 27.04785156 67.07397461 C28 70 28 70 28 74 C25.39575884 74.02747734 22.79181958 74.04706373 20.1875 74.0625 C19.46884766 74.07087891 18.75019531 74.07925781 18.00976562 74.08789062 C12.96467507 74.11011569 8.03701198 73.7502998 3.01831055 73.25610352 C-2.70613763 72.77038434 -8.44693255 72.62627338 -14.1875 72.4375 C-15.42564453 72.39431641 -16.66378906 72.35113281 -17.93945312 72.30664062 C-20.95955262 72.20169508 -23.97971816 72.09953456 -27 72 C-24.91279999 65.56933021 -22.63249897 59.23085156 -20.234375 52.91015625 C-19.87788879 51.96675888 -19.52140259 51.02336151 -19.15411377 50.05137634 C-18.40191376 48.06184977 -17.64886856 46.07264256 -16.89501953 44.08374023 C-15.76527177 41.10279598 -14.6382619 38.12082847 -13.51171875 35.13867188 C-9.07271412 23.40017388 -4.57357917 11.68671756 0 0 Z " fill="#F4B10F" transform="translate(581,209)"/>
<path d="M0 0 C5.927839 3.95189267 10.83181036 8.14525486 16 13 C16.96550781 13.89976562 17.93101563 14.79953125 18.92578125 15.7265625 C31.22217612 27.43588817 40.15370486 41.01575581 48 56 C48.5775 57.10214844 49.155 58.20429688 49.75 59.33984375 C51 62 51 62 51 64 C34.17 63.67 17.34 63.34 0 63 C0 42.21 0 21.42 0 0 Z " fill="#F6B310" transform="translate(47,416)"/>
<path d="M0 0 C0.86625 0.845625 1.7325 1.69125 2.625 2.5625 C14.17540392 12.24513027 24.82472375 14.04713771 39.375 13.9375 C40.99742421 13.95064689 42.61982629 13.96690549 44.2421875 13.98632812 C48.16213026 14.02663425 52.07995429 14.02528029 56 14 C56.84667279 28.91390741 57.27987127 43.81566695 57.5625 58.75 C57.60584676 60.92318255 57.64946516 63.09635969 57.69335938 65.26953125 C57.79918641 70.51296142 57.89949159 75.75645461 58 81 C66.91 84.465 66.91 84.465 76 88 C76.99 86.02 76.99 86.02 78 84 C78 85.98 78 87.96 78 90 C72.55327118 89.45673819 68.21299759 88.07989922 63.25 85.8125 C62.55406738 85.50078857 61.85813477 85.18907715 61.14111328 84.86791992 C56.0686117 82.56441707 51.10642516 80.10296274 46.28125 77.3125 C43.82002786 75.85278039 43.82002786 75.85278039 40.375 74.3125 C37.05851574 71.08329164 37.6126382 68.56055146 37.46875 64.08203125 C36.74177677 59.30218224 34.30316671 55.82092108 31.69140625 51.82421875 C27.29327442 44.4804559 27.66992391 37.28414804 27.69726562 28.96679688 C27.58748796 23.16641823 27.58748796 23.16641823 24.98828125 18.09765625 C21.30927824 15.51514041 17.53289747 13.47117441 13.5 11.5 C8.1817945 8.90060077 3.84578016 6.57830971 0 2 C0 1.34 0 0.68 0 0 Z " fill="#F4B724" transform="translate(627,42)"/>
<path d="M0 0 C0.8656105 0.01823822 1.73122101 0.03647644 2.62306213 0.05526733 C5.53712284 0.12216759 8.44990797 0.21281115 11.36328125 0.3046875 C13.42088481 0.35924049 15.47850246 0.41326424 17.53613281 0.46679688 C36.00743834 0.98033902 54.46801082 1.81725032 72.92578125 2.6796875 C73.62867153 2.71247047 74.33156181 2.74525345 75.0557518 2.77902985 C79.78876418 3.00051374 84.52139737 3.22894026 89.25390625 3.4609375 C91.04508629 3.54690689 91.04508629 3.54690689 92.87245178 3.63461304 C98.21481987 3.90291302 103.55507969 4.20423159 108.88964844 4.59960938 C109.76627136 4.66273315 110.64289429 4.72585693 111.54608154 4.79089355 C113.67578125 5.1796875 113.67578125 5.1796875 115.67578125 7.1796875 C115.42578125 9.7421875 115.42578125 9.7421875 114.67578125 12.1796875 C97.2968802 20.86913802 64.81092916 15.3374566 45.39038086 15.31005859 C41.27824876 15.30430966 37.16618125 15.30769084 33.0540514 15.31363106 C29.83067856 15.31726987 26.6073207 15.31608382 23.38394737 15.31350327 C21.86796752 15.31284589 20.35198622 15.31361972 18.83600807 15.31598282 C-6.8217312 15.34728755 -6.8217312 15.34728755 -10.15324402 12.7583313 C-11.6206081 10.78011166 -11.72700784 9.62512707 -11.69921875 7.1796875 C-11.70695312 6.4990625 -11.7146875 5.8184375 -11.72265625 5.1171875 C-10.45991781 -1.02318767 -5.153175 -0.17715291 0 0 Z " fill="#2E4891" transform="translate(460.32421875,395.8203125)"/>
<path d="M0 0 C3.92479121 0.00568678 7.84951454 0.00230375 11.77430344 -0.00342178 C25.83468596 -0.02103225 39.89377847 -0.01158727 53.94628906 0.51318359 C54.88975189 0.54354706 55.83321472 0.57391052 56.80526733 0.60519409 C63.10312196 0.88876649 63.10312196 0.88876649 65.34472656 3.13037109 C64.78917101 7.68592665 64.78917101 7.68592665 63.34472656 9.13037109 C60.71043748 9.51016183 58.09674618 9.82288907 55.45019531 10.09130859 C54.60982224 10.17754486 53.76944916 10.26378113 52.90361023 10.35263062 C41.17902044 11.50108252 29.41937828 12.1329089 17.65722656 12.75537109 C16.44225494 12.82007599 15.22728333 12.88478088 13.97549438 12.95144653 C-1.46772606 13.75939765 -16.90900039 14.44569065 -32.37490845 14.55023193 C-34.09418024 14.56192807 -35.81342184 14.57980473 -37.53256226 14.60406494 C-39.88261766 14.63316977 -42.23087249 14.63492665 -44.58105469 14.62646484 C-45.88469971 14.62831787 -47.18834473 14.6301709 -48.53149414 14.63208008 C-51.65527344 14.13037109 -51.65527344 14.13037109 -53.60913086 12.32592773 C-55.18451337 9.01964654 -54.49363802 6.61280861 -53.65527344 3.13037109 C-50.66253809 0.13763575 -47.2740022 0.65737411 -43.24121094 0.51318359 C-41.87323868 0.45688278 -41.87323868 0.45688278 -40.47763062 0.39944458 C-26.99260844 -0.08463174 -13.49180001 -0.01962426 0 0 Z " fill="#32498E" transform="translate(226.6552734375,426.86962890625)"/>
<path d="M0 0 C1.23650299 0.01387253 2.47300598 0.02774506 3.74697876 0.04203796 C5.10370852 0.07292702 6.46042833 0.10425593 7.81713867 0.13598633 C9.2309694 0.15834906 10.6448196 0.17950925 12.0586853 0.19953918 C15.83786262 0.25745903 19.6163735 0.33541683 23.39507675 0.41827393 C25.73073969 0.46792473 28.06643721 0.51186407 30.4022522 0.55371094 C88.34215821 1.59196328 88.34215821 1.59196328 109.92260742 4.28051758 C110.54760742 6.65551758 110.54760742 6.65551758 110.92260742 9.28051758 C108.57482589 11.62829911 107.8937975 11.59988041 104.68823242 11.87817383 C103.80135742 11.95745117 102.91448242 12.03672852 102.00073242 12.1184082 C101.06745117 12.1925293 100.13416992 12.26665039 99.17260742 12.34301758 C98.31666992 12.42100586 97.46073242 12.49899414 96.57885742 12.5793457 C75.47651644 14.38258247 54.31195676 14.52361698 33.14819336 14.57568359 C29.05956721 14.58694247 24.97145662 14.62166934 20.88301659 14.66085529 C17.70546437 14.6869186 14.5280411 14.69536391 11.35039139 14.69896507 C9.84089103 14.70382186 8.33139607 14.71541 6.82200241 14.73400307 C4.72927972 14.75827818 2.63798546 14.75745767 0.54516602 14.75048828 C-1.23393661 14.75928764 -1.23393661 14.75928764 -3.04898071 14.76826477 C-6.71661165 14.17756682 -7.89349036 13.24211843 -10.07739258 10.28051758 C-10.57739258 6.71801758 -10.57739258 6.71801758 -10.07739258 3.28051758 C-6.9296822 0.04532152 -4.39379369 -0.07473044 0 0 Z " fill="#2F4890" transform="translate(190.077392578125,394.719482421875)"/>
<path d="M0 0 C8.00145559 0.03497904 15.85452184 0.51229769 23.81176758 1.3449707 C30.04972141 1.98768219 36.28888963 2.5083948 42.54296875 2.9609375 C43.37019943 3.02087387 44.19743011 3.08081024 45.04972839 3.14256287 C46.30938164 3.23381187 46.30938164 3.23381187 47.59448242 3.3269043 C88.1390763 6.26708963 88.1390763 6.26708963 105.26171875 11.265625 C105.75671875 13.245625 105.75671875 13.245625 106.26171875 15.265625 C101.4546498 16.8100848 97.44129652 17.51403171 92.34375 17.49609375 C91.69806061 17.49613403 91.05237122 17.49617432 90.38711548 17.49621582 C88.2826078 17.49282818 86.17862181 17.47389008 84.07421875 17.453125 C82.584067 17.44420709 81.09391396 17.43550258 79.60375977 17.42700195 C59.51049087 17.28365554 39.48761947 16.46074065 19.44290161 15.07827759 C17.62228281 14.95375743 15.80137304 14.8334169 13.98019409 14.71737671 C11.42568119 14.55222954 8.87316409 14.36860068 6.3203125 14.1796875 C5.54977539 14.13271225 4.77923828 14.085737 3.98535156 14.03733826 C-1.2477217 13.62069725 -1.2477217 13.62069725 -3.71923828 11.83178711 C-5.71237421 8.76854634 -5.01997147 5.81492174 -4.73828125 2.265625 C-2.73828125 0.265625 -2.73828125 0.265625 0 0 Z " fill="#2E4891" transform="translate(458.73828125,422.734375)"/>
<path d="M0 0 C0.33 0.66 0.66 1.32 1 2 C130.69 2 260.38 2 394 2 C394 2.66 394 3.32 394 4 C263.65 4 133.3 4 -1 4 C-0.67 2.68 -0.34 1.36 0 0 Z " fill="#F8E5B9" transform="translate(127,54)"/>
<path d="M0 0 C1.90509131 3.60778509 2.78516845 6.99595461 3.625 11 C4.01558594 12.8253125 4.01558594 12.8253125 4.4140625 14.6875 C5 18 5 18 5 22 C-10.18 22 -25.36 22 -41 22 C-38.50420194 19.50420194 -37.17743442 18.4034476 -34.17114258 16.9152832 C-33.4105806 16.53511551 -32.65001862 16.15494781 -31.8664093 15.76325989 C-31.05068954 15.36314194 -30.23496979 14.96302399 -29.39453125 14.55078125 C-28.13572395 13.92456123 -28.13572395 13.92456123 -26.85148621 13.28569031 C-24.17459092 11.95562845 -21.49364081 10.63397944 -18.8125 9.3125 C-16.99516909 8.41135889 -15.17810841 7.50967259 -13.36132812 6.60742188 C-8.91066123 4.39861308 -4.45633983 2.19733949 0 0 Z " fill="#F3B00F" transform="translate(537,258)"/>
<path d="M0 0 C-0.33 1.32 -0.66 2.64 -1 4 C-2.51980469 4.25523438 -2.51980469 4.25523438 -4.0703125 4.515625 C-5.42200801 4.75968113 -6.77356338 5.00451432 -8.125 5.25 C-9.12273438 5.41435547 -9.12273438 5.41435547 -10.140625 5.58203125 C-16.03176069 6.67939966 -20.06347501 8.92685949 -24.21484375 13.37109375 C-26.12888441 16.18980133 -27.34499221 18.88412157 -28.5625 22.0625 C-29.99606552 25.78977036 -31.28969997 29.02288287 -34 32 C-36.5625 32.4375 -36.5625 32.4375 -39 32 C-41.89222979 27.66165532 -41.91324461 24.08606997 -41 19 C-36.65507089 9.48743332 -29.99139548 2.62149985 -20.3203125 -1.3125 C-13.46202303 -3.34458577 -6.75310497 -1.78805616 0 0 Z " fill="#F0AF11" transform="translate(602,66)"/>
<path d="M0 0 C1.875 0 1.875 0 4 1 C6.9236375 6.11636563 7.67172069 10.14643396 7 16 C5.3125 18.5625 5.3125 18.5625 3 20 C0.1230594 19.92983072 -1.38887675 19.47451923 -3.66015625 17.7109375 C-5 16 -5 16 -5.1796875 13.94921875 C-4.50306368 8.92658809 -3.76417823 3.76417823 0 0 Z " fill="#EAAB15" transform="translate(564,104)"/>
<path d="M0 0 C0.99 0.33 1.98 0.66 3 1 C5.56634861 1.22718496 8.11678107 1.41608184 10.6875 1.5625 C11.7403418 1.62727539 11.7403418 1.62727539 12.81445312 1.69335938 C14.54275206 1.7991736 16.2713511 1.90006581 18 2 C18 2.33 18 2.66 18 3 C11.07 3 4.14 3 -3 3 C-2.01 2.01 -1.02 1.02 0 0 Z " fill="#E9AB16" transform="translate(499,277)"/>
</svg>
