<?xml version="1.0" encoding="UTF-8"?>
<svg version="1.1" xmlns="http://www.w3.org/2000/svg" width="500" height="181">
<path d="M0 0 C165 0 330 0 500 0 C500 59.73 500 119.46 500 181 C335 181 170 181 0 181 C0 121.27 0 61.54 0 0 Z " fill="#FEFEFE" transform="translate(0,0)"/>
<path d="M0 0 C2.76821899 -0.44824219 2.76821899 -0.44824219 6.34228516 -0.546875 C6.99296967 -0.56819489 7.64365417 -0.58951477 8.3140564 -0.61148071 C10.47237169 -0.67582323 12.63007085 -0.71564929 14.7890625 -0.75 C15.89665483 -0.7702121 15.89665483 -0.7702121 17.02662277 -0.79083252 C20.93908767 -0.85931297 24.85124489 -0.90726633 28.76416016 -0.94042969 C32.79481367 -0.9791178 36.81970716 -1.09253538 40.84827614 -1.22314453 C43.95576482 -1.30941519 47.06190398 -1.33741274 50.17048264 -1.35021973 C51.65472376 -1.36661313 53.13889995 -1.4049358 54.62196732 -1.46618652 C59.31320795 -1.64819166 63.50810122 -1.56903096 68 0 C71.71521097 3.96071177 73.74288347 8.05342329 76 13 C76.99742672 14.70143965 78.0129409 16.39271479 79.0625 18.0625 C81.09383893 21.44373829 81.09383893 21.44373829 80.62109375 24.24609375 C80.41613281 24.82488281 80.21117187 25.40367188 80 26 C75.86037158 22.40074265 73.48601564 18.01961491 70.8125 13.3125 C69.92438197 11.76623442 69.03511979 10.22062524 68.14453125 8.67578125 C67.75628174 7.99427002 67.36803223 7.31275879 66.96801758 6.6105957 C66.10003504 5.01943484 66.10003504 5.01943484 65 4 C63.06693502 3.90603943 61.13041162 3.88256483 59.19506836 3.88647461 C57.95385727 3.88655014 56.71264618 3.88662567 55.43382263 3.88670349 C54.0691626 3.89181089 52.70450298 3.8970269 51.33984375 3.90234375 C49.95121817 3.904208 48.56259193 3.90563187 47.17396545 3.90663147 C43.51278885 3.91045613 39.8516517 3.92028597 36.19049072 3.93133545 C32.45707737 3.94155068 28.72365766 3.94612933 24.99023438 3.95117188 C17.66013823 3.96190829 10.33007464 3.97898409 3 4 C2.53209045 4.82208954 2.06418091 5.64417908 1.58209229 6.49118042 C-14.08692465 34.01796093 -14.08692465 34.01796093 -22.1003418 47.24462891 C-22.60218994 48.08171387 -23.10403809 48.91879883 -23.62109375 49.78125 C-24.0586499 50.50376953 -24.49620605 51.22628906 -24.94702148 51.97070312 C-26.0507112 54.09773047 -26.77346225 55.60842078 -27 58 C-26.05671573 60.50497805 -26.05671573 60.50497805 -24.4921875 63.0859375 C-23.92346924 64.08915039 -23.35475098 65.09236328 -22.76879883 66.12597656 C-22.14384521 67.1981543 -21.5188916 68.27033203 -20.875 69.375 C-20.24424561 70.47811523 -19.61349121 71.58123047 -18.96362305 72.71777344 C-16.99134579 76.15470059 -14.99962955 79.57892342 -13 83 C-12.37464355 84.07088867 -11.74928711 85.14177734 -11.10498047 86.24511719 C-7.43441755 92.51537615 -3.73291135 98.76667027 0 105 C0.39575226 105.856577 0.79150452 106.71315399 1.19924927 107.59568787 C2.7946533 110.26369557 2.7946533 110.26369557 5.75248718 110.63923645 C7.42127678 110.6492292 7.42127678 110.6492292 9.1237793 110.65942383 C10.38486008 110.67906693 11.64594086 110.69871002 12.94523621 110.71894836 C14.32156515 110.7155049 15.69789282 110.71151977 17.07421875 110.70703125 C18.48242839 110.72014552 19.8906192 110.73544892 21.29878235 110.75285339 C25.00275569 110.79274964 28.70623752 110.80289665 32.41040039 110.80688477 C36.19107009 110.81620774 39.97144995 110.85361582 43.75195312 110.88867188 C51.1679711 110.95329441 58.58369412 110.98649594 66 111 C66.30161545 110.22450302 66.6032309 109.44900604 66.91398621 108.65000916 C68.02763609 105.93256448 69.36679963 103.61487647 70.92578125 101.12890625 C71.47427734 100.22462891 72.02277344 99.32035156 72.58789062 98.38867188 C73.74123403 96.4986516 74.91068789 94.61837213 76.09570312 92.74804688 C76.63775391 91.84248047 77.17980469 90.93691406 77.73828125 90.00390625 C78.24399658 89.18736572 78.74971191 88.3708252 79.27075195 87.52954102 C80.33462626 84.91714743 80.33462626 84.91714743 78.6640625 82.35546875 C76.32803808 77.64503452 76.58804713 73.49516776 76.63671875 68.30859375 C76.63597099 66.77429466 76.63597099 66.77429466 76.63520813 65.20899963 C76.63754224 63.05313162 76.64723152 60.89726055 76.66381836 58.74145508 C76.68744461 55.4452271 76.68436972 52.149807 76.67773438 48.85351562 C76.68331055 46.75520352 76.69042004 44.65689482 76.69921875 42.55859375 C76.69830734 41.57515488 76.69739594 40.591716 76.69645691 39.57847595 C76.76231629 33.21342577 76.91814652 29.19344387 81.46324158 24.40472507 C85.63179669 21.03387053 89.77208058 21.30583119 94.94433594 21.37181091 C95.94161587 21.36471653 96.9388958 21.35762214 97.96639633 21.35031277 C101.30611529 21.33271917 104.64467259 21.35084545 107.984375 21.36889648 C110.37944061 21.36375822 112.77450245 21.35647766 115.16955566 21.34721375 C120.99824391 21.33060467 126.82656078 21.33734198 132.65523815 21.35530197 C137.3928635 21.36933568 142.13039785 21.37321913 146.86804199 21.3698597 C147.88000629 21.36914353 147.88000629 21.36914353 148.91241431 21.3684129 C150.28299874 21.36738656 151.65358315 21.3663312 153.02416754 21.36524714 C165.13987669 21.35668225 177.25542399 21.3733481 189.37109375 21.40307617 C201.12376707 21.43191312 212.87620725 21.43899689 224.62890625 21.42358398 C237.43112342 21.40681766 250.23322992 21.40279198 263.03544998 21.42029434 C264.40095264 21.4221387 265.76645532 21.42397343 267.13195801 21.42579842 C267.80378671 21.42671051 268.47561542 21.4276226 269.16780257 21.42856232 C273.89895607 21.43416506 278.63005549 21.43086301 283.36120605 21.42425346 C289.73065589 21.41659751 296.0997695 21.42869484 302.46916199 21.45610237 C304.80806988 21.46299443 307.14700913 21.46307544 309.48591614 21.45588684 C312.6762085 21.44721074 315.8654589 21.46311821 319.05566406 21.4853363 C319.98348568 21.47709554 320.9113073 21.46885477 321.86724472 21.46036428 C327.41144917 21.53173579 330.60110645 22.29891247 335 26 C339.02433951 30.54636719 338.43397647 35.80325539 338.3984375 41.55859375 C338.40130768 42.58050308 338.40417786 43.60241241 338.40713501 44.6552887 C338.40917324 46.81292272 338.40366026 48.97057532 338.39111328 51.12817383 C338.37507323 54.42246053 338.39096215 57.71551727 338.41015625 61.00976562 C338.40817345 63.1093777 338.40432902 65.20898901 338.3984375 67.30859375 C338.40451019 68.29000839 338.41058289 69.27142303 338.4168396 70.28257751 C338.36291383 75.55389373 338.17403632 79.57067378 335 84 C329.75591118 88.49651149 325.61144638 88.5348144 319.03788757 88.38008118 C318.03864079 88.37291539 317.039394 88.3657496 316.00986701 88.35836667 C312.66323734 88.32984271 309.31769803 88.27272623 305.97143555 88.21606445 C303.57141075 88.19037822 301.17136398 88.16667961 298.77130127 88.14482117 C293.60326195 88.09489533 288.43552251 88.03362997 283.26770592 87.9644413 C275.09474256 87.85629056 266.92171446 87.79341152 258.74824524 87.73832703 C255.94948378 87.7189537 253.15072385 87.69936285 250.351964 87.67975903 C249.65257844 87.6748817 248.95319289 87.67000438 248.23261383 87.66497925 C240.27717355 87.60907215 232.32180116 87.5457431 224.36645508 87.4777832 C223.63950826 87.47158654 222.91256145 87.46538988 222.16358594 87.45900544 C210.38434329 87.35722666 198.60588525 87.21407813 186.82723715 87.05925009 C174.72361131 86.90151004 162.62039874 86.80146711 150.51584846 86.75135392 C143.72309545 86.7213384 136.93286996 86.66345925 130.14118004 86.5363102 C123.7522277 86.41883546 117.36655617 86.3710881 110.9765625 86.3765583 C108.63379927 86.3660531 106.29098667 86.32980484 103.9490757 86.26575089 C92.48526377 85.47092989 92.48526377 85.47092989 82.19294584 89.44059491 C78.71394753 93.4799782 76.82766223 98.05234018 75 103 C71.29077854 111.67578591 71.29077854 111.67578591 68 115 C62.79266634 116.63471126 57.81606654 116.405893 52.44140625 116.171875 C50.92690276 116.14946706 49.41231172 116.13239792 47.89768982 116.12042236 C43.928354 116.07479731 39.96436627 115.95713886 35.99713135 115.82397461 C31.94218316 115.70076778 27.88636215 115.64631899 23.83007812 115.5859375 C15.88427548 115.45758957 7.94280449 115.2530649 0 115 C-0.39628098 114.29046173 -0.79256195 113.58092346 -1.20085144 112.84988403 C-3.02238633 109.58955812 -4.84516904 106.32993143 -6.66796875 103.0703125 C-7.29119019 101.95438721 -7.91441162 100.83846191 -8.55651855 99.6887207 C-12.08413281 93.38272001 -15.64798486 87.10248567 -19.3125 80.875 C-19.72452667 80.17366943 -20.13655334 79.47233887 -20.56106567 78.74975586 C-22.53827305 75.39122084 -24.57543357 72.08269818 -26.68359375 68.8046875 C-27.11438232 68.12293457 -27.5451709 67.44118164 -27.98901367 66.73876953 C-28.80551774 65.45101694 -29.636894 64.17252573 -30.4855957 62.90576172 C-31.578125 61.171875 -31.578125 61.171875 -33 58 C-31.85874258 54.27514805 -29.96624464 51.02568528 -28.015625 47.66796875 C-27.41645264 46.63293213 -26.81728027 45.59789551 -26.19995117 44.53149414 C-25.55646729 43.42797607 -24.9129834 42.32445801 -24.25 41.1875 C-23.58911377 40.04853271 -22.92822754 38.90956543 -22.24731445 37.73608398 C-20.51599268 34.75289413 -18.78041511 31.77220297 -17.04376221 28.79211426 C-16.01352245 27.02321773 -14.98473609 25.25348528 -13.95654297 23.48339844 C-12.03504864 20.17554525 -10.11182929 16.86870465 -8.1875 13.5625 C-7.59549805 12.54502686 -7.00349609 11.52755371 -6.39355469 10.47924805 C-5.84473633 9.53863525 -5.29591797 8.59802246 -4.73046875 7.62890625 C-4.24989014 6.80463135 -3.76931152 5.98035645 -3.27416992 5.13110352 C-2.23300282 3.38970715 -1.12543875 1.68815812 0 0 Z " fill="#FCFAFC" transform="translate(112,39)"/>
<path d="M0 0 C2.88056675 0.10847288 5.7563823 0.10468212 8.6386385 0.09861946 C11.4307779 0.10134931 14.21990612 0.15632349 17.01103783 0.22863388 C18.97533711 0.27544907 20.94026145 0.29316147 22.90504456 0.31021118 C31.5928843 0.7713256 31.5928843 0.7713256 35.17607117 4.16690063 C36.9682701 6.69430844 38.43999144 9.19748462 39.84320068 11.95617676 C40.57475043 13.16081133 41.31206107 14.36198916 42.05804443 15.55773926 C42.626521 16.55547363 43.19499756 17.55320801 43.78070068 18.58117676 C44.36722412 19.60469238 44.95374756 20.62820801 45.55804443 21.68273926 C45.982146 22.43297363 46.40624756 23.18320801 46.84320068 23.95617676 C47.83320068 23.29617676 48.82320068 22.63617676 49.84320068 21.95617676 C49.51320068 23.27617676 49.18320068 24.59617676 48.84320068 25.95617676 C48.18320068 25.95617676 47.52320068 25.95617676 46.84320068 25.95617676 C46.10576685 29.26881829 45.71080809 32.35150508 45.68206787 35.74304199 C45.67246033 36.66427353 45.66285278 37.58550507 45.6529541 38.53465271 C45.64870422 39.51809158 45.64445435 40.50153046 45.64007568 41.51477051 C45.63437561 42.53667984 45.62867554 43.55858917 45.62280273 44.61146545 C45.61337341 46.76908336 45.60682698 48.92671553 45.60296631 51.08435059 C45.59324556 54.37846988 45.56219606 57.67196897 45.53070068 60.96594238 C45.52417149 63.06554807 45.51892069 65.16515819 45.51507568 67.26477051 C45.49655548 68.73689247 45.49655548 68.73689247 45.47766113 70.23875427 C45.48066223 71.16313797 45.48366333 72.08752167 45.48675537 73.03991699 C45.48310974 73.84646225 45.47946411 74.65300751 45.47570801 75.48399353 C45.71533621 78.15390209 45.71533621 78.15390209 47.55224609 80.87135315 C48.84320068 83.95617676 48.84320068 83.95617676 47.80682373 87.02404785 C47.16269531 88.08188477 46.51856689 89.13972168 45.85491943 90.22961426 C45.34914116 91.08252548 45.34914116 91.08252548 44.83314514 91.95266724 C43.75441272 93.75993327 42.64363237 95.54481201 41.53070068 97.33117676 C40.79216591 98.55510837 40.05581048 99.78035785 39.32171631 101.00695801 C37.52054991 104.00571684 35.69010027 106.98531137 33.84320068 109.95617676 C25.76781409 110.25833966 17.69481173 110.48881249 9.61515808 110.62973499 C5.86247232 110.69740172 2.11366978 110.78901144 -1.63677979 110.93688965 C-5.26167309 111.07891091 -8.88285345 111.1560077 -12.51031494 111.18958092 C-13.88867718 111.21347563 -15.26685094 111.26015397 -16.64361572 111.3306675 C-21.1005606 111.54970825 -24.94098167 111.47956641 -29.15679932 109.95617676 C-32.81799513 105.99874902 -34.86707672 101.84311811 -37.15679932 96.95617676 C-38.39857351 94.79043265 -39.65653624 92.63380236 -40.93804932 90.49133301 C-42.83720158 87.19529603 -44.72778205 83.89449458 -46.61553955 80.59191895 C-50.7083946 73.43203243 -50.7083946 73.43203243 -54.97320557 66.37414551 C-55.36250244 65.73662354 -55.75179932 65.09910156 -56.15289307 64.44226074 C-57.13113463 62.84970676 -58.12934252 61.26946234 -59.12945557 59.69055176 C-60.51356661 56.00660602 -59.59868192 54.57447039 -58.15679932 50.95617676 C-57.04597202 48.85168372 -55.87697672 46.77729577 -54.66461182 44.72961426 C-54.31856903 44.14185211 -53.97252625 43.55408997 -53.61599731 42.94851685 C-52.50988353 41.07288691 -51.39596047 39.20203498 -50.28179932 37.33117676 C-49.21333284 35.52202427 -48.14646841 33.71199817 -47.08357239 31.89956665 C-46.33700057 30.64627156 -45.57442253 29.40239237 -44.79728699 28.16781616 C-42.45763071 24.40730369 -40.62337894 20.73116109 -39.01055908 16.60119629 C-31.18832191 -1.76371184 -17.66656682 -0.83880154 0 0 Z " fill="#FDFCFD" transform="translate(144.15679931640625,40.0438232421875)"/>
<path d="M0 0 C2.76821899 -0.44824219 2.76821899 -0.44824219 6.34228516 -0.546875 C6.99296967 -0.56819489 7.64365417 -0.58951477 8.3140564 -0.61148071 C10.47237169 -0.67582323 12.63007085 -0.71564929 14.7890625 -0.75 C15.89665483 -0.7702121 15.89665483 -0.7702121 17.02662277 -0.79083252 C20.93908767 -0.85931297 24.85124489 -0.90726633 28.76416016 -0.94042969 C32.79481367 -0.9791178 36.81970716 -1.09253538 40.84827614 -1.22314453 C43.95576482 -1.30941519 47.06190398 -1.33741274 50.17048264 -1.35021973 C51.65472376 -1.36661313 53.13889995 -1.4049358 54.62196732 -1.46618652 C59.31320795 -1.64819166 63.50810122 -1.56903096 68 0 C71.71521097 3.96071177 73.74288347 8.05342329 76 13 C76.99742672 14.70143965 78.0129409 16.39271479 79.0625 18.0625 C81.09383893 21.44373829 81.09383893 21.44373829 80.62109375 24.24609375 C80.41613281 24.82488281 80.21117187 25.40367188 80 26 C75.86037158 22.40074265 73.48601564 18.01961491 70.8125 13.3125 C69.92438197 11.76623442 69.03511979 10.22062524 68.14453125 8.67578125 C67.75628174 7.99427002 67.36803223 7.31275879 66.96801758 6.6105957 C66.10003504 5.01943484 66.10003504 5.01943484 65 4 C63.06693502 3.90603943 61.13041162 3.88256483 59.19506836 3.88647461 C57.95385727 3.88655014 56.71264618 3.88662567 55.43382263 3.88670349 C54.0691626 3.89181089 52.70450298 3.8970269 51.33984375 3.90234375 C49.95121817 3.904208 48.56259193 3.90563187 47.17396545 3.90663147 C43.51278885 3.91045613 39.8516517 3.92028597 36.19049072 3.93133545 C32.45707737 3.94155068 28.72365766 3.94612933 24.99023438 3.95117188 C17.66013823 3.96190829 10.33007464 3.97898409 3 4 C2.53209045 4.82208954 2.06418091 5.64417908 1.58209229 6.49118042 C-14.08692465 34.01796093 -14.08692465 34.01796093 -22.1003418 47.24462891 C-22.60218994 48.08171387 -23.10403809 48.91879883 -23.62109375 49.78125 C-24.0586499 50.50376953 -24.49620605 51.22628906 -24.94702148 51.97070312 C-26.0507112 54.09773047 -26.77346225 55.60842078 -27 58 C-26.05671573 60.50497805 -26.05671573 60.50497805 -24.4921875 63.0859375 C-23.92346924 64.08915039 -23.35475098 65.09236328 -22.76879883 66.12597656 C-22.14384521 67.1981543 -21.5188916 68.27033203 -20.875 69.375 C-20.24424561 70.47811523 -19.61349121 71.58123047 -18.96362305 72.71777344 C-16.99134579 76.15470059 -14.99962955 79.57892342 -13 83 C-12.37464355 84.07088867 -11.74928711 85.14177734 -11.10498047 86.24511719 C-7.43441755 92.51537615 -3.73291135 98.76667027 0 105 C0.39575226 105.856577 0.79150452 106.71315399 1.19924927 107.59568787 C2.7946533 110.26369557 2.7946533 110.26369557 5.75248718 110.63923645 C7.42127678 110.6492292 7.42127678 110.6492292 9.1237793 110.65942383 C10.38486008 110.67906693 11.64594086 110.69871002 12.94523621 110.71894836 C14.32156515 110.7155049 15.69789282 110.71151977 17.07421875 110.70703125 C18.48242839 110.72014552 19.8906192 110.73544892 21.29878235 110.75285339 C25.00275569 110.79274964 28.70623752 110.80289665 32.41040039 110.80688477 C36.19107009 110.81620774 39.97144995 110.85361582 43.75195312 110.88867188 C51.1679711 110.95329441 58.58369412 110.98649594 66 111 C66.30161545 110.22450302 66.6032309 109.44900604 66.91398621 108.65000916 C68.02763609 105.93256448 69.36679963 103.61487647 70.92578125 101.12890625 C71.47427734 100.22462891 72.02277344 99.32035156 72.58789062 98.38867188 C73.74123403 96.4986516 74.91068789 94.61837213 76.09570312 92.74804688 C76.63775391 91.84248047 77.17980469 90.93691406 77.73828125 90.00390625 C78.24399658 89.18736572 78.74971191 88.3708252 79.27075195 87.52954102 C80.33462626 84.91714743 80.33462626 84.91714743 78.6640625 82.35546875 C76.32803808 77.64503452 76.58804713 73.49516776 76.63671875 68.30859375 C76.63597099 66.77429466 76.63597099 66.77429466 76.63520813 65.20899963 C76.63754224 63.05313162 76.64723152 60.89726055 76.66381836 58.74145508 C76.68744461 55.4452271 76.68436972 52.149807 76.67773438 48.85351562 C76.68331055 46.75520352 76.69042004 44.65689482 76.69921875 42.55859375 C76.69830734 41.57515488 76.69739594 40.591716 76.69645691 39.57847595 C76.76231629 33.21342577 76.91814652 29.19344387 81.46324158 24.40472507 C85.63179669 21.03387053 89.77208058 21.30583119 94.94433594 21.37181091 C95.94161587 21.36471653 96.9388958 21.35762214 97.96639633 21.35031277 C101.30611529 21.33271917 104.64467259 21.35084545 107.984375 21.36889648 C110.37944061 21.36375822 112.77450245 21.35647766 115.16955566 21.34721375 C120.99824391 21.33060467 126.82656078 21.33734198 132.65523815 21.35530197 C137.3928635 21.36933568 142.13039785 21.37321913 146.86804199 21.3698597 C147.88000629 21.36914353 147.88000629 21.36914353 148.91241431 21.3684129 C150.28299874 21.36738656 151.65358315 21.3663312 153.02416754 21.36524714 C165.13987669 21.35668225 177.25542399 21.3733481 189.37109375 21.40307617 C201.12376707 21.43191312 212.87620725 21.43899689 224.62890625 21.42358398 C237.43112342 21.40681766 250.23322992 21.40279198 263.03544998 21.42029434 C264.40095264 21.4221387 265.76645532 21.42397343 267.13195801 21.42579842 C267.80378671 21.42671051 268.47561542 21.4276226 269.16780257 21.42856232 C273.89895607 21.43416506 278.63005549 21.43086301 283.36120605 21.42425346 C289.73065589 21.41659751 296.0997695 21.42869484 302.46916199 21.45610237 C304.80806988 21.46299443 307.14700913 21.46307544 309.48591614 21.45588684 C312.6762085 21.44721074 315.8654589 21.46311821 319.05566406 21.4853363 C319.98348568 21.47709554 320.9113073 21.46885477 321.86724472 21.46036428 C327.41144917 21.53173579 330.60110645 22.29891247 335 26 C339.02433951 30.54636719 338.43397647 35.80325539 338.3984375 41.55859375 C338.40130768 42.58050308 338.40417786 43.60241241 338.40713501 44.6552887 C338.40917324 46.81292272 338.40366026 48.97057532 338.39111328 51.12817383 C338.37507323 54.42246053 338.39096215 57.71551727 338.41015625 61.00976562 C338.40817345 63.1093777 338.40432902 65.20898901 338.3984375 67.30859375 C338.40451019 68.29000839 338.41058289 69.27142303 338.4168396 70.28257751 C338.36291383 75.55389373 338.17403632 79.57067378 335 84 C329.75591118 88.49651149 325.61144638 88.5348144 319.03788757 88.38008118 C318.03864079 88.37291539 317.039394 88.3657496 316.00986701 88.35836667 C312.66323734 88.32984271 309.31769803 88.27272623 305.97143555 88.21606445 C303.57141075 88.19037822 301.17136398 88.16667961 298.77130127 88.14482117 C293.60326195 88.09489533 288.43552251 88.03362997 283.26770592 87.9644413 C275.09474256 87.85629056 266.92171446 87.79341152 258.74824524 87.73832703 C255.94948378 87.7189537 253.15072385 87.69936285 250.351964 87.67975903 C249.65257844 87.6748817 248.95319289 87.67000438 248.23261383 87.66497925 C240.27717355 87.60907215 232.32180116 87.5457431 224.36645508 87.4777832 C223.63950826 87.47158654 222.91256145 87.46538988 222.16358594 87.45900544 C210.38434329 87.35722666 198.60588525 87.21407813 186.82723715 87.05925009 C174.72361131 86.90151004 162.62039874 86.80146711 150.51584846 86.75135392 C143.72309545 86.7213384 136.93286996 86.66345925 130.14118004 86.5363102 C123.7522277 86.41883546 117.36655617 86.3710881 110.9765625 86.3765583 C108.63379927 86.3660531 106.29098667 86.32980484 103.9490757 86.26575089 C92.48526377 85.47092989 92.48526377 85.47092989 82.19294584 89.44059491 C78.71394753 93.4799782 76.82766223 98.05234018 75 103 C71.29077854 111.67578591 71.29077854 111.67578591 68 115 C62.79266634 116.63471126 57.81606654 116.405893 52.44140625 116.171875 C50.92690276 116.14946706 49.41231172 116.13239792 47.89768982 116.12042236 C43.928354 116.07479731 39.96436627 115.95713886 35.99713135 115.82397461 C31.94218316 115.70076778 27.88636215 115.64631899 23.83007812 115.5859375 C15.88427548 115.45758957 7.94280449 115.2530649 0 115 C-0.39628098 114.29046173 -0.79256195 113.58092346 -1.20085144 112.84988403 C-3.02238633 109.58955812 -4.84516904 106.32993143 -6.66796875 103.0703125 C-7.29119019 101.95438721 -7.91441162 100.83846191 -8.55651855 99.6887207 C-12.08413281 93.38272001 -15.64798486 87.10248567 -19.3125 80.875 C-19.72452667 80.17366943 -20.13655334 79.47233887 -20.56106567 78.74975586 C-22.53827305 75.39122084 -24.57543357 72.08269818 -26.68359375 68.8046875 C-27.11438232 68.12293457 -27.5451709 67.44118164 -27.98901367 66.73876953 C-28.80551774 65.45101694 -29.636894 64.17252573 -30.4855957 62.90576172 C-31.578125 61.171875 -31.578125 61.171875 -33 58 C-31.85874258 54.27514805 -29.96624464 51.02568528 -28.015625 47.66796875 C-27.41645264 46.63293213 -26.81728027 45.59789551 -26.19995117 44.53149414 C-25.55646729 43.42797607 -24.9129834 42.32445801 -24.25 41.1875 C-23.58911377 40.04853271 -22.92822754 38.90956543 -22.24731445 37.73608398 C-20.51599268 34.75289413 -18.78041511 31.77220297 -17.04376221 28.79211426 C-16.01352245 27.02321773 -14.98473609 25.25348528 -13.95654297 23.48339844 C-12.03504864 20.17554525 -10.11182929 16.86870465 -8.1875 13.5625 C-7.59549805 12.54502686 -7.00349609 11.52755371 -6.39355469 10.47924805 C-5.84473633 9.53863525 -5.29591797 8.59802246 -4.73046875 7.62890625 C-4.24989014 6.80463135 -3.76931152 5.98035645 -3.27416992 5.13110352 C-2.23300282 3.38970715 -1.12543875 1.68815812 0 0 Z M81 31 C80.25988158 33.3812148 80.25988158 33.3812148 80.35302734 35.89453125 C80.33726654 36.83901123 80.32150574 37.78349121 80.30526733 38.7565918 C80.31538849 39.7650415 80.32550964 40.77349121 80.3359375 41.8125 C80.33115387 42.85897705 80.32637024 43.9054541 80.32144165 44.98364258 C80.31804452 47.19256089 80.32723375 49.40152961 80.34814453 51.61035156 C80.37491104 54.9887721 80.34838857 58.36387014 80.31640625 61.7421875 C80.31971038 63.89063232 80.32611667 66.03907508 80.3359375 68.1875 C80.32581635 69.19594971 80.31569519 70.20439941 80.30526733 71.2434082 C80.32102814 72.18788818 80.33678894 73.13236816 80.35302734 74.10546875 C80.35700531 74.93199951 80.36098328 75.75853027 80.36508179 76.61010742 C81.34511166 80.29903315 82.99580831 81.66272925 86 84 C89.2623522 84.73679633 92.45957681 84.67500119 95.79284668 84.63491821 C97.28241796 84.64661814 97.28241796 84.64661814 98.80208158 84.65855443 C102.13340446 84.67851617 105.46359029 84.66269277 108.79492188 84.64697266 C111.18161182 84.65374688 113.56829653 84.6626489 115.95497131 84.67352295 C121.76673986 84.69397482 127.57814639 84.69095486 133.38992608 84.67645974 C138.11328476 84.66516703 142.83655296 84.66363671 147.55992126 84.66907883 C148.56835884 84.67022807 148.56835884 84.67022807 149.59716889 84.67140054 C150.96292359 84.67299917 152.32867827 84.67462024 153.69443291 84.6762635 C166.50068378 84.69052071 179.30675569 84.6741288 192.11297721 84.64726166 C203.10096115 84.62492282 214.08868098 84.62880296 225.07666016 84.65185547 C237.83711804 84.67861406 250.59741907 84.68914742 263.3579011 84.67379415 C264.71862695 84.67220141 266.07935283 84.67062955 267.44007874 84.66907883 C268.10957903 84.66830745 268.77907933 84.66753607 269.46886751 84.66674132 C274.18647224 84.66242447 278.90397746 84.66971049 283.62156677 84.68147659 C289.97135499 84.69590112 296.32064359 84.68593566 302.67037773 84.65700531 C305.0032563 84.65038383 307.33617678 84.65231016 309.66903877 84.66331863 C312.84898136 84.6769429 316.02731388 84.65989446 319.20715332 84.63491821 C320.13467895 84.64607182 321.06220458 84.65722543 322.01783705 84.66871703 C326.53241725 84.59973557 328.40416743 84.46410136 332.07237053 81.60689259 C334.13368268 78.81920987 334.63013772 77.62310476 334.64697266 74.21313477 C334.67061386 72.83128746 334.67061386 72.83128746 334.69473267 71.42152405 C334.68461151 70.43808517 334.67449036 69.4546463 334.6640625 68.44140625 C334.66884613 67.41949692 334.67362976 66.39758759 334.67855835 65.3447113 C334.68195542 63.18706724 334.67276659 61.02937157 334.65185547 58.87182617 C334.62511595 55.57678839 334.65159696 52.28516564 334.68359375 48.99023438 C334.68028908 46.89061751 334.67388167 44.79100276 334.6640625 42.69140625 C334.67418365 41.70999161 334.68430481 40.72857697 334.69473267 39.71742249 C334.67897186 38.79303879 334.66321106 37.86865509 334.64697266 36.91625977 C334.64299469 36.10971451 334.63901672 35.30316925 334.63491821 34.47218323 C333.6989408 30.82776476 331.95178974 28.26848672 329 26 C325.73979445 25.11584064 322.56898372 25.19384321 319.20715332 25.24482727 C318.2141058 25.23617289 317.22105828 25.22751851 316.19791842 25.21860188 C312.86641062 25.19699034 309.5365685 25.21831822 306.20507812 25.23950195 C303.81838685 25.23300978 301.43170137 25.2239495 299.04502869 25.21250916 C293.23319579 25.19179952 287.42189642 25.19915884 281.61007392 25.22001002 C276.88670672 25.2362952 272.16347078 25.24049334 267.44007874 25.23604393 C266.76778702 25.23541325 266.0954953 25.23478258 265.40283111 25.23413279 C264.0370764 25.23278674 262.67132173 25.23140716 261.30556709 25.22999444 C248.49927776 25.21805784 235.69325209 25.24212304 222.88702279 25.27901252 C211.89903508 25.30990554 200.9113509 25.31227661 189.92333984 25.29321289 C177.16287231 25.27109953 164.40257493 25.26495765 151.6420989 25.28553551 C150.28137305 25.28769845 148.92064717 25.28984755 147.55992126 25.29198265 C146.89042097 25.29304902 146.22092067 25.29411538 145.53113249 25.29521406 C140.81353466 25.30168311 136.0960244 25.29691819 131.37843323 25.28795815 C125.02862805 25.27742203 118.67934469 25.2914916 112.32962227 25.32470131 C109.99674969 25.33292275 107.66382942 25.33260796 105.33096123 25.32322311 C102.15100182 25.31183382 98.97267559 25.33111721 95.79284668 25.35835266 C94.40155823 25.34264543 94.40155823 25.34264543 92.98216295 25.32662088 C87.28764305 25.41774685 84.57361537 26.16270589 81 31 Z " fill="#860E86" transform="translate(112,39)"/>
<path d="M0 0 C2.88056675 0.10847288 5.7563823 0.10468212 8.6386385 0.09861946 C11.4307779 0.10134931 14.21990612 0.15632349 17.01103783 0.22863388 C18.97533711 0.27544907 20.94026145 0.29316147 22.90504456 0.31021118 C31.5928843 0.7713256 31.5928843 0.7713256 35.17607117 4.16690063 C36.9682701 6.69430844 38.43999144 9.19748462 39.84320068 11.95617676 C40.57475043 13.16081133 41.31206107 14.36198916 42.05804443 15.55773926 C42.626521 16.55547363 43.19499756 17.55320801 43.78070068 18.58117676 C44.36722412 19.60469238 44.95374756 20.62820801 45.55804443 21.68273926 C45.982146 22.43297363 46.40624756 23.18320801 46.84320068 23.95617676 C47.83320068 23.29617676 48.82320068 22.63617676 49.84320068 21.95617676 C49.51320068 23.27617676 49.18320068 24.59617676 48.84320068 25.95617676 C48.18320068 25.95617676 47.52320068 25.95617676 46.84320068 25.95617676 C46.34820068 28.43117676 46.34820068 28.43117676 45.84320068 30.95617676 C43.26290709 28.69164301 42.26477471 26.80183561 41.18768311 23.56628418 C38.95886815 17.92668594 36.60913388 12.86991406 31.84320068 8.95617676 C23.10556771 5.82265723 13.3405065 6.77233242 4.20129395 7.18798828 C0.7762788 7.32308809 -2.64948207 7.34855088 -6.07672119 7.38391113 C-12.7751942 7.47490608 -19.46382256 7.67344117 -26.15679932 7.95617676 C-26.45444183 8.72071167 -26.75208435 9.48524658 -27.05874634 10.27294922 C-28.33160788 13.383343 -29.90158676 16.19528135 -31.57086182 19.11242676 C-31.90419525 19.69600952 -32.23752869 20.27959229 -32.58096313 20.88085938 C-33.28714561 22.11551226 -33.9949111 23.34926089 -34.7041626 24.58215332 C-35.7614025 26.42070644 -36.81303117 28.26237433 -37.86383057 30.10461426 C-38.55744161 31.31578056 -39.25145151 32.52671853 -39.94586182 33.73742676 C-40.28788635 34.33563232 -40.62991089 34.93383789 -40.9822998 35.5501709 C-42.74869204 38.61372351 -44.56713712 41.62306937 -46.49957275 44.58508301 C-47.0636232 45.45949036 -47.0636232 45.45949036 -47.6390686 46.3515625 C-48.68017367 47.95365234 -49.73899196 49.54419118 -50.79888916 51.13391113 C-52.36516641 53.81833093 -52.36516641 53.81833093 -52.04034424 56.50769043 C-51.06488173 59.21089946 -49.88174542 61.55442712 -48.43414307 64.03820801 C-47.89595947 64.96955566 -47.35777588 65.90090332 -46.80328369 66.86047363 C-46.23931885 67.82018066 -45.675354 68.7798877 -45.09429932 69.76867676 C-44.52646729 70.74771973 -43.95863525 71.7267627 -43.37359619 72.73547363 C-41.97425104 75.14611024 -40.56850002 77.55276186 -39.15679932 79.95617676 C-39.13174316 79.20408936 -39.10668701 78.45200195 -39.08087158 77.67712402 C-38.96529418 74.2907848 -38.84239587 70.90475063 -38.71929932 67.51867676 C-38.67998291 66.33467285 -38.6406665 65.15066895 -38.60015869 63.93078613 C-38.55826416 62.8060791 -38.51636963 61.68137207 -38.47320557 60.52258301 C-38.43654785 59.48045654 -38.39989014 58.43833008 -38.36212158 57.36462402 C-38.15679932 54.95617676 -38.15679932 54.95617676 -37.15679932 53.95617676 C-34.97040478 53.8835873 -32.78179543 53.87243893 -30.59429932 53.89367676 C-28.79799072 53.90721191 -28.79799072 53.90721191 -26.96539307 53.92102051 C-26.03855713 53.93262207 -25.11172119 53.94422363 -24.15679932 53.95617676 C-24.15679932 55.27617676 -24.15679932 56.59617676 -24.15679932 57.95617676 C-22.89867432 57.64680176 -21.64054932 57.33742676 -20.34429932 57.01867676 C-19.636604 56.84465332 -18.92890869 56.67062988 -18.19976807 56.49133301 C-16.4999673 56.04606971 -14.82377978 55.51183691 -13.15679932 54.95617676 C-6.70907367 54.40975933 -2.64835437 55.54620866 2.84320068 58.95617676 C3.17320068 59.28617676 3.50320068 59.61617676 3.84320068 59.95617676 C7.39561934 60.12605863 10.9413737 60.25348501 14.49749756 60.29797363 C20.29051553 60.51216088 20.29051553 60.51216088 23.38616943 62.99914551 C23.86698975 63.64496582 24.34781006 64.29078613 24.84320068 64.95617676 C25.56765381 64.30648926 26.29210693 63.65680176 27.03851318 62.98742676 C28.00531006 62.15211426 28.97210693 61.31680176 29.96820068 60.45617676 C31.39519287 59.20320801 31.39519287 59.20320801 32.85101318 57.92492676 C36.23732186 55.69685943 37.87219334 55.3712125 41.84320068 55.95617676 C43.84320068 57.95617676 43.84320068 57.95617676 44.19476318 60.85070801 C43.77121679 64.59203449 43.09512876 65.3159804 40.21820068 67.64367676 C39.40738037 68.31141113 38.59656006 68.97914551 37.76116943 69.66711426 C36.79823975 70.42250488 35.83531006 71.17789551 34.84320068 71.95617676 C33.65143015 72.90624081 32.46004426 73.8567875 31.26898193 74.80773926 C27.81441092 77.55128724 24.33710358 80.26286929 20.84320068 82.95617676 C20.09038818 83.54398926 19.33757568 84.13180176 18.56195068 84.73742676 C14.19502612 87.83397327 7.98314557 87.3540208 2.84320068 86.95617676 C-0.44999881 86.20481408 -3.59818583 85.14064377 -6.78179932 84.01867676 C-12.26362277 82.13156341 -17.37778422 80.56816361 -23.15679932 79.95617676 C-23.65179932 81.44117676 -23.65179932 81.44117676 -24.15679932 82.95617676 C-28.44679932 82.95617676 -32.73679932 82.95617676 -37.15679932 82.95617676 C-34.42177852 90.71585732 -31.46018224 98.40344422 -25.15679932 103.95617676 C-16.02533291 107.574674 -5.51323032 106.24752943 4.09320068 105.76867676 C6.78436029 105.69961655 9.47564473 105.66244824 12.16741943 105.62609863 C18.73262072 105.51323036 25.28527537 105.28151756 31.84320068 104.95617676 C32.14834595 104.17852966 32.45349121 103.40088257 32.7678833 102.59967041 C34.54134335 98.23990608 36.98478435 94.27094083 39.34320068 90.20617676 C39.84206787 89.33090332 40.34093506 88.45562988 40.85491943 87.55383301 C41.33573975 86.7223877 41.81656006 85.89094238 42.31195068 85.03430176 C42.7495874 84.27536621 43.18722412 83.51643066 43.63812256 82.73449707 C44.84320068 80.95617676 44.84320068 80.95617676 46.84320068 79.95617676 C48.03607178 81.57629395 48.03607178 81.57629395 48.84320068 83.95617676 C47.69329834 86.79699707 47.69329834 86.79699707 45.75726318 90.03430176 C45.42149261 90.60573914 45.08572205 91.17717651 44.73977661 91.76593018 C43.66409806 93.58865016 42.56668771 95.39712994 41.46820068 97.20617676 C40.73495941 98.43967885 40.00316981 99.67404513 39.27288818 100.90930176 C37.47972714 103.93513456 35.66684137 106.94859188 33.84320068 109.95617676 C25.76781409 110.25833966 17.69481173 110.48881249 9.61515808 110.62973499 C5.86247232 110.69740172 2.11366978 110.78901144 -1.63677979 110.93688965 C-5.26167309 111.07891091 -8.88285345 111.1560077 -12.51031494 111.18958092 C-13.88867718 111.21347563 -15.26685094 111.26015397 -16.64361572 111.3306675 C-21.1005606 111.54970825 -24.94098167 111.47956641 -29.15679932 109.95617676 C-32.81799513 105.99874902 -34.86707672 101.84311811 -37.15679932 96.95617676 C-38.39857351 94.79043265 -39.65653624 92.63380236 -40.93804932 90.49133301 C-42.83720158 87.19529603 -44.72778205 83.89449458 -46.61553955 80.59191895 C-50.7083946 73.43203243 -50.7083946 73.43203243 -54.97320557 66.37414551 C-55.36250244 65.73662354 -55.75179932 65.09910156 -56.15289307 64.44226074 C-57.13113463 62.84970676 -58.12934252 61.26946234 -59.12945557 59.69055176 C-60.51356661 56.00660602 -59.59868192 54.57447039 -58.15679932 50.95617676 C-57.04597202 48.85168372 -55.87697672 46.77729577 -54.66461182 44.72961426 C-54.31856903 44.14185211 -53.97252625 43.55408997 -53.61599731 42.94851685 C-52.50988353 41.07288691 -51.39596047 39.20203498 -50.28179932 37.33117676 C-49.21333284 35.52202427 -48.14646841 33.71199817 -47.08357239 31.89956665 C-46.33700057 30.64627156 -45.57442253 29.40239237 -44.79728699 28.16781616 C-42.45763071 24.40730369 -40.62337894 20.73116109 -39.01055908 16.60119629 C-31.18832191 -1.76371184 -17.66656682 -0.83880154 0 0 Z " fill="#871187" transform="translate(144.15679931640625,40.0438232421875)"/>
<path d="M0 0 C3.23350088 9.23857393 2.59693991 16.40437568 -1.49581909 25.25520325 C-8.47071803 38.42431524 -8.47071803 38.42431524 -15.04437256 41.35919189 C-22.31707771 43.09446145 -29.54399975 42.9459993 -36.96972656 42.5246582 C-40.89634162 42.31134059 -44.78702742 42.29897197 -48.71875 42.31445312 C-65.99103728 42.04924958 -65.99103728 42.04924958 -70.95007324 38.67190552 C-74.18044988 35.26116421 -75.58646614 31.45891326 -77 27 C-77.79453277 25.58172188 -78.62052616 24.17973111 -79.5 22.8125 C-81 20 -81 20 -81 18 C-79.60974609 17.92652344 -79.60974609 17.92652344 -78.19140625 17.8515625 C-76.99386719 17.77679688 -75.79632813 17.70203125 -74.5625 17.625 C-72.77005859 17.52058594 -72.77005859 17.52058594 -70.94140625 17.4140625 C-69.97074219 17.27742188 -69.00007813 17.14078125 -68 17 C-67.67 16.34 -67.34 15.68 -67 15 C-60.0925844 14.55555503 -54.64559474 16.56036769 -48.203125 18.8671875 C-40.64066488 21.4369555 -33.47783594 22.45288053 -26 19 C-23.62991238 17.42999651 -21.44290021 15.68172718 -19.25 13.875 C-18.64381836 13.38797607 -18.03763672 12.90095215 -17.41308594 12.39916992 C-15.60144036 10.94148834 -13.79922947 9.47296785 -12 8 C-10.08557109 6.43475902 -8.16921825 4.87186483 -6.25 3.3125 C-5.47140625 2.66925781 -4.6928125 2.02601562 -3.890625 1.36328125 C-2 0 -2 0 0 0 Z " fill="#FDFBFD" transform="translate(188,105)"/>
<path d="M0 0 C4.95 0 9.9 0 15 0 C17.70890706 5.68870483 19.33306862 11.53398191 21.015625 17.59765625 C22.14497914 21.50109854 23.49179687 25.22949218 25 29 C25.24234375 28.06800781 25.4846875 27.13601562 25.734375 26.17578125 C32.12208505 1.87791495 32.12208505 1.87791495 34 0 C38.95 0 43.9 0 49 0 C49 14.52 49 29.04 49 44 C45.7 44 42.4 44 39 44 C38.67 34.1 38.34 24.2 38 14 C37.2575 16.536875 36.515 19.07375 35.75 21.6875 C33.56192888 29.14470049 31.31001494 36.57956096 29 44 C26.03 44 23.06 44 20 44 C19.06053907 41.20898014 18.12340052 38.41721383 17.1875 35.625 C16.79594727 34.46291016 16.79594727 34.46291016 16.39648438 33.27734375 C14.47750617 27.54410022 12.73932155 21.79773849 11 16 C10.67 25.24 10.34 34.48 10 44 C6.7 44 3.4 44 0 44 C0 29.48 0 14.96 0 0 Z " fill="#820682" transform="translate(201,71)"/>
<path d="M0 0 C2.76821899 -0.44824219 2.76821899 -0.44824219 6.34228516 -0.546875 C6.99296967 -0.56819489 7.64365417 -0.58951477 8.3140564 -0.61148071 C10.47237169 -0.67582323 12.63007085 -0.71564929 14.7890625 -0.75 C15.89665483 -0.7702121 15.89665483 -0.7702121 17.02662277 -0.79083252 C20.93908767 -0.85931297 24.85124489 -0.90726633 28.76416016 -0.94042969 C32.79481367 -0.9791178 36.81970716 -1.09253538 40.84827614 -1.22314453 C43.95576482 -1.30941519 47.06190398 -1.33741274 50.17048264 -1.35021973 C51.65472376 -1.36661313 53.13889995 -1.4049358 54.62196732 -1.46618652 C59.31320795 -1.64819166 63.50810122 -1.56903096 68 0 C71.71521097 3.96071177 73.74288347 8.05342329 76 13 C76.99742672 14.70143965 78.0129409 16.39271479 79.0625 18.0625 C81.09383893 21.44373829 81.09383893 21.44373829 80.62109375 24.24609375 C80.41613281 24.82488281 80.21117187 25.40367188 80 26 C75.86037158 22.40074265 73.48601564 18.01961491 70.8125 13.3125 C69.92438197 11.76623442 69.03511979 10.22062524 68.14453125 8.67578125 C67.75628174 7.99427002 67.36803223 7.31275879 66.96801758 6.6105957 C66.10003504 5.01943484 66.10003504 5.01943484 65 4 C63.06693502 3.90603943 61.13041162 3.88256483 59.19506836 3.88647461 C57.95385727 3.88655014 56.71264618 3.88662567 55.43382263 3.88670349 C54.0691626 3.89181089 52.70450298 3.8970269 51.33984375 3.90234375 C49.95121817 3.904208 48.56259193 3.90563187 47.17396545 3.90663147 C43.51278885 3.91045613 39.8516517 3.92028597 36.19049072 3.93133545 C32.45707737 3.94155068 28.72365766 3.94612933 24.99023438 3.95117188 C17.66013823 3.96190829 10.33007464 3.97898409 3 4 C2.53209045 4.82208954 2.06418091 5.64417908 1.58209229 6.49118042 C-14.08692465 34.01796093 -14.08692465 34.01796093 -22.1003418 47.24462891 C-22.60218994 48.08171387 -23.10403809 48.91879883 -23.62109375 49.78125 C-24.0586499 50.50376953 -24.49620605 51.22628906 -24.94702148 51.97070312 C-26.0507112 54.09773047 -26.77346225 55.60842078 -27 58 C-26.05671573 60.50497805 -26.05671573 60.50497805 -24.4921875 63.0859375 C-23.92346924 64.08915039 -23.35475098 65.09236328 -22.76879883 66.12597656 C-22.14384521 67.1981543 -21.5188916 68.27033203 -20.875 69.375 C-20.24424561 70.47811523 -19.61349121 71.58123047 -18.96362305 72.71777344 C-16.99134579 76.15470059 -14.99962955 79.57892342 -13 83 C-12.37464355 84.07088867 -11.74928711 85.14177734 -11.10498047 86.24511719 C-7.43441755 92.51537615 -3.73291135 98.76667027 0 105 C0.39575226 105.856577 0.79150452 106.71315399 1.19924927 107.59568787 C2.7946533 110.26369557 2.7946533 110.26369557 5.75248718 110.63923645 C7.42127678 110.6492292 7.42127678 110.6492292 9.1237793 110.65942383 C10.38486008 110.67906693 11.64594086 110.69871002 12.94523621 110.71894836 C14.32156515 110.7155049 15.69789282 110.71151977 17.07421875 110.70703125 C18.48242839 110.72014552 19.8906192 110.73544892 21.29878235 110.75285339 C25.00275569 110.79274964 28.70623752 110.80289665 32.41040039 110.80688477 C36.19107009 110.81620774 39.97144995 110.85361582 43.75195312 110.88867188 C51.1679711 110.95329441 58.58369412 110.98649594 66 111 C66.30259735 110.22646683 66.6051947 109.45293365 66.91696167 108.65596008 C68.03054216 105.92510076 69.34758104 103.47174777 70.8203125 100.91796875 C71.62275391 99.52094727 71.62275391 99.52094727 72.44140625 98.09570312 C72.99699219 97.13599609 73.55257812 96.17628906 74.125 95.1875 C74.96998047 93.71893555 74.96998047 93.71893555 75.83203125 92.22070312 C77.21844415 89.81210445 78.60785055 87.40528605 80 85 C81.485 85.495 81.485 85.495 83 86 C81.11758536 96.6486816 76.49638009 108.02125742 68 115 C57.73287509 118.72206682 46.22375781 117.38110579 35.51647949 116.64794922 C31.51013737 116.40009629 27.50011543 116.29236085 23.48828125 116.171875 C15.64885255 115.9162066 7.82755377 115.50823158 0 115 C-0.39628098 114.29046173 -0.79256195 113.58092346 -1.20085144 112.84988403 C-3.02238633 109.58955812 -4.84516904 106.32993143 -6.66796875 103.0703125 C-7.29119019 101.95438721 -7.91441162 100.83846191 -8.55651855 99.6887207 C-12.08413281 93.38272001 -15.64798486 87.10248567 -19.3125 80.875 C-19.72452667 80.17366943 -20.13655334 79.47233887 -20.56106567 78.74975586 C-22.53827305 75.39122084 -24.57543357 72.08269818 -26.68359375 68.8046875 C-27.11438232 68.12293457 -27.5451709 67.44118164 -27.98901367 66.73876953 C-28.80551774 65.45101694 -29.636894 64.17252573 -30.4855957 62.90576172 C-31.578125 61.171875 -31.578125 61.171875 -33 58 C-31.85874258 54.27514805 -29.96624464 51.02568528 -28.015625 47.66796875 C-27.41645264 46.63293213 -26.81728027 45.59789551 -26.19995117 44.53149414 C-25.55646729 43.42797607 -24.9129834 42.32445801 -24.25 41.1875 C-23.58911377 40.04853271 -22.92822754 38.90956543 -22.24731445 37.73608398 C-20.51599268 34.75289413 -18.78041511 31.77220297 -17.04376221 28.79211426 C-16.01352245 27.02321773 -14.98473609 25.25348528 -13.95654297 23.48339844 C-12.03504864 20.17554525 -10.11182929 16.86870465 -8.1875 13.5625 C-7.59549805 12.54502686 -7.00349609 11.52755371 -6.39355469 10.47924805 C-5.84473633 9.53863525 -5.29591797 8.59802246 -4.73046875 7.62890625 C-4.24989014 6.80463135 -3.76931152 5.98035645 -3.27416992 5.13110352 C-2.23300282 3.38970715 -1.12543875 1.68815812 0 0 Z " fill="#0E0E0E" transform="translate(112,39)"/>
<path d="M0 0 C3.0625 2 3.0625 2 5 4 C5.78375 3.34 6.5675 2.68 7.375 2 C11.61906526 -0.81257531 16.08193888 -0.97541545 21 0 C23.82424288 2.19022918 25.41508603 3.83017207 27 7 C27.08510205 8.9593604 27.10717656 10.92162794 27.09765625 12.8828125 C27.09443359 14.04941406 27.09121094 15.21601562 27.08789062 16.41796875 C27.07532227 18.25294922 27.07532227 18.25294922 27.0625 20.125 C27.05798828 21.35605469 27.05347656 22.58710937 27.04882812 23.85546875 C27.0370133 26.90369392 27.02054028 29.95182314 27 33 C23.7 33 20.4 33 17 33 C16.505 20.625 16.505 20.625 16 8 C13.69 8.33 11.38 8.66 9 9 C6.87719437 12.18420845 6.71980463 13.20537255 6.5859375 16.88671875 C6.54726563 17.82451172 6.50859375 18.76230469 6.46875 19.72851562 C6.4378125 20.70498047 6.406875 21.68144531 6.375 22.6875 C6.33632813 23.67556641 6.29765625 24.66363281 6.2578125 25.68164062 C6.16354601 28.1207861 6.0806841 30.56036747 6 33 C2.7 33 -0.6 33 -4 33 C-4.495 21.12 -4.495 21.12 -5 9 C-7.31 9 -9.62 9 -12 9 C-13.23060421 11.46120841 -13.2057723 13.25776866 -13.31640625 16.0078125 C-13.35830078 16.99394531 -13.40019531 17.98007813 -13.44335938 18.99609375 C-13.48267578 20.02863281 -13.52199219 21.06117187 -13.5625 22.125 C-13.60568359 23.16527344 -13.64886719 24.20554687 -13.69335938 25.27734375 C-13.79962768 27.8513983 -13.90033527 30.42568131 -14 33 C-17.3 33 -20.6 33 -24 33 C-24 22.44 -24 11.88 -24 1 C-21.03 1 -18.06 1 -15 1 C-15 1.99 -15 2.98 -15 4 C-14.195625 3.34 -13.39125 2.68 -12.5625 2 C-8.57236061 -0.64748585 -4.65069884 -0.88910419 0 0 Z " fill="#830683" transform="translate(313,82)"/>
<path d="M0 0 C3.1875 1.625 3.1875 1.625 5.1875 3.625 C7.12007855 3.99331081 7.12007855 3.99331081 9.3203125 4.0390625 C10.12597656 4.07773438 10.93164062 4.11640625 11.76171875 4.15625 C13.02435547 4.20265625 13.02435547 4.20265625 14.3125 4.25 C15.58673828 4.30800781 15.58673828 4.30800781 16.88671875 4.3671875 C18.98661684 4.46156494 21.08702891 4.54437586 23.1875 4.625 C22.8575 6.275 22.5275 7.925 22.1875 9.625 C16.2475 9.625 10.3075 9.625 4.1875 9.625 C4.5175 10.285 4.8475 10.945 5.1875 11.625 C7.7090021 11.70672936 10.22779917 11.76583373 12.75 11.8125 C13.80670898 11.85020508 13.80670898 11.85020508 14.88476562 11.88867188 C23.09041556 12.00211404 28.62545457 8.71439002 34.625 3.4375 C35.16576172 2.97408203 35.70652344 2.51066406 36.26367188 2.03320312 C37.57822029 0.90478546 38.88383526 -0.23402577 40.1875 -1.375 C41.5075 -0.715 42.8275 -0.055 44.1875 0.625 C42.79583057 3.86635108 41.24771577 5.68655088 38.51953125 7.90234375 C37.79056641 8.49853516 37.06160156 9.09472656 36.31054688 9.70898438 C35.54806641 10.32064453 34.78558594 10.93230469 34 11.5625 C33.25685547 12.17029297 32.51371094 12.77808594 31.74804688 13.40429688 C17.37605218 25.08075532 17.37605218 25.08075532 8.5390625 25.0546875 C3.1968928 24.36979395 -1.78356093 22.60808512 -6.859375 20.84741211 C-11.88910847 19.12155369 -16.51061014 18.10423261 -21.8125 17.625 C-21.8125 12.345 -21.8125 7.065 -21.8125 1.625 C-19.82682292 1.13671875 -17.84114583 0.6484375 -15.85546875 0.16015625 C-10.14237279 -1.33639088 -5.67265656 -2.34485595 0 0 Z " fill="#FAF6FA" transform="translate(141.8125,99.375)"/>
<path d="M0 0 C4.84886926 1.86576056 7.57706979 4.93929582 9.859375 9.50390625 C10.36176135 15.95763863 10.80379185 22.06333129 6.859375 27.50390625 C4.421875 29.75390625 4.421875 29.75390625 1.859375 31.50390625 C1.26125 31.91640625 0.663125 32.32890625 0.046875 32.75390625 C-5.57642761 34.68189572 -11.03355291 33.71189504 -16.3828125 31.48828125 C-20.30162302 29.29374736 -22.43486901 25.52977951 -24.140625 21.50390625 C-24.82136335 16.26380405 -24.79795758 11.84291705 -22.453125 7.06640625 C-15.87470758 -0.22319144 -9.69069405 -2.24583603 0 0 Z " fill="#830683" transform="translate(276.140625,82.49609375)"/>
<path d="M0 0 C1.79244141 0.01740234 1.79244141 0.01740234 3.62109375 0.03515625 C5.41740234 0.04869141 5.41740234 0.04869141 7.25 0.0625 C8.17683594 0.07410156 9.10367188 0.08570312 10.05859375 0.09765625 C10.05859375 1.41765625 10.05859375 2.73765625 10.05859375 4.09765625 C11.31671875 3.78828125 12.57484375 3.47890625 13.87109375 3.16015625 C14.57878906 2.98613281 15.28648438 2.81210938 16.015625 2.6328125 C17.71542577 2.1875492 19.39161329 1.6533164 21.05859375 1.09765625 C27.50631939 0.55123882 31.5670387 1.68768815 37.05859375 5.09765625 C37.55359375 5.59265625 37.55359375 5.59265625 38.05859375 6.09765625 C41.61101241 6.26753812 45.15676677 6.3949645 48.71289062 6.43945312 C54.5059086 6.65364038 54.5059086 6.65364038 57.6015625 9.140625 C58.08238281 9.78644531 58.56320313 10.43226562 59.05859375 11.09765625 C59.78304687 10.44796875 60.5075 9.79828125 61.25390625 9.12890625 C62.22070312 8.29359375 63.1875 7.45828125 64.18359375 6.59765625 C65.61058594 5.3446875 65.61058594 5.3446875 67.06640625 4.06640625 C70.45271492 1.83833893 72.08758641 1.512692 76.05859375 2.09765625 C78.05859375 4.09765625 78.05859375 4.09765625 78.41015625 6.9921875 C77.98660986 10.73351398 77.31052183 11.45745989 74.43359375 13.78515625 C73.62277344 14.45289062 72.81195313 15.120625 71.9765625 15.80859375 C71.01363281 16.56398438 70.05070312 17.319375 69.05859375 18.09765625 C67.86682321 19.0477203 66.67543733 19.998267 65.484375 20.94921875 C62.02980398 23.69276673 58.55249665 26.40434879 55.05859375 29.09765625 C54.30578125 29.68546875 53.55296875 30.27328125 52.77734375 30.87890625 C48.41041919 33.97545276 42.19853863 33.49550029 37.05859375 33.09765625 C33.76539426 32.34629358 30.61720724 31.28212326 27.43359375 30.16015625 C21.95177029 28.2730429 16.83760884 26.7096431 11.05859375 26.09765625 C10.72859375 27.08765625 10.39859375 28.07765625 10.05859375 29.09765625 C7.91282738 29.12451563 5.7669673 29.14398713 3.62109375 29.16015625 C2.42613281 29.17175781 1.23117188 29.18335937 0 29.1953125 C-2.94140625 29.09765625 -2.94140625 29.09765625 -3.94140625 28.09765625 C-4.04123683 26.11008597 -4.07221378 24.11898105 -4.07421875 22.12890625 C-4.07550781 20.91847656 -4.07679687 19.70804688 -4.078125 18.4609375 C-4.07425781 17.18605469 -4.07039063 15.91117188 -4.06640625 14.59765625 C-4.07027344 13.32277344 -4.07414062 12.04789063 -4.078125 10.734375 C-4.07683594 9.52394531 -4.07554688 8.31351563 -4.07421875 7.06640625 C-4.07309082 5.94685547 -4.07196289 4.82730469 -4.07080078 3.67382812 C-3.88597208 -0.00600673 -3.7276513 0.12376 0 0 Z M16.05859375 6.09765625 C14.07859375 6.42765625 12.09859375 6.75765625 10.05859375 7.09765625 C10.05859375 12.37765625 10.05859375 17.65765625 10.05859375 23.09765625 C11.54359375 23.32453125 13.02859375 23.55140625 14.55859375 23.78515625 C19.60077086 24.67648304 24.28263968 26.1033786 29.12109375 27.72265625 C37.15937092 30.32745315 43.80070196 32.04816344 51.62109375 28.09765625 C55.70352225 25.55509113 59.20029113 22.49625092 62.70703125 19.21875 C66.02210164 16.22857853 69.5950088 13.60355445 73.1875 10.95703125 C74.11369141 10.03664063 74.11369141 10.03664063 75.05859375 9.09765625 C75.05859375 7.77765625 75.05859375 6.45765625 75.05859375 5.09765625 C70.78199038 5.08000449 70.78199038 5.08000449 67.74609375 7.46875 C67.14539063 7.96052734 66.5446875 8.45230469 65.92578125 8.95898438 C65.30960938 9.47912109 64.6934375 9.99925781 64.05859375 10.53515625 C62.83450502 11.56077871 61.60548104 12.58054584 60.37109375 13.59375 C59.56091797 14.27715454 59.56091797 14.27715454 58.734375 14.97436523 C54.53985391 17.78598988 49.6683628 17.21596632 44.80859375 17.16015625 C44.06351563 17.15564453 43.3184375 17.15113281 42.55078125 17.14648438 C40.72001735 17.13474871 38.88929502 17.11681475 37.05859375 17.09765625 C36.72859375 16.43765625 36.39859375 15.77765625 36.05859375 15.09765625 C41.99859375 15.09765625 47.93859375 15.09765625 54.05859375 15.09765625 C54.38859375 13.44765625 54.71859375 11.79765625 55.05859375 10.09765625 C53.79402344 10.06027344 52.52945313 10.02289063 51.2265625 9.984375 C49.56637645 9.91871792 47.90622153 9.85227049 46.24609375 9.78515625 C45.41271484 9.76259766 44.57933594 9.74003906 43.72070312 9.71679688 C42.51704102 9.66362305 42.51704102 9.66362305 41.2890625 9.609375 C40.18147583 9.57009888 40.18147583 9.57009888 39.05151367 9.5300293 C36.55967714 8.98941402 35.75107193 7.95218959 34.05859375 6.09765625 C27.69473967 3.34962835 22.35637273 3.35247054 16.05859375 6.09765625 Z " fill="#8A158A" transform="translate(109.94140625,93.90234375)"/>
<path d="M0 0 C4.34999469 2.27407532 6.94290863 4.87477157 8.92578125 9.31640625 C9.76143324 14.98464944 10.04437289 20.4452879 6.80078125 25.37890625 C3.59356007 29.04174938 0.43785653 30.98856608 -4.46875 31.62890625 C-10.19565798 31.90366046 -13.63541437 31.22678154 -18.07421875 27.31640625 C-22.37649465 22.54901944 -23.43704378 18.8789333 -23.35546875 12.59765625 C-22.76602486 7.81661139 -19.92601078 5.06679447 -16.44921875 2.00390625 C-11.51145046 -1.50450806 -5.7975938 -1.91069475 0 0 Z " fill="#F8F1F8" transform="translate(166.07421875,61.68359375)"/>
<path d="M0 0 C3.43830418 2.73660945 5.82770604 5.17324259 7.0625 9.4375 C7.0625 12.0775 7.0625 14.7175 7.0625 17.4375 C-0.8575 17.4375 -8.7775 17.4375 -16.9375 17.4375 C-14.61498574 22.32245525 -14.61498574 22.32245525 -11.9375 23.4375 C-8.93909924 23.57076226 -6.3563582 23.54221455 -3.4375 22.8125 C-0.16316499 22.32134975 2.02366378 23.23609964 5.0625 24.4375 C3.60413185 28.28228875 1.69791701 29.6197915 -1.9375 31.4375 C-6.90613323 33.32215399 -12.23576394 33.0714801 -17.125 31.25 C-21.24206824 28.59677825 -24.15655962 26.11094368 -26.25 21.625 C-27.52755909 15.70177148 -27.87567101 11.49789804 -24.875 6.1875 C-19.10088608 -1.98311246 -9.21493694 -4.57774287 0 0 Z " fill="#840984" transform="translate(368.9375,83.5625)"/>
<path d="M0 0 C2.87029869 1.79393668 4.49131638 2.98263276 6 6 C6.08527628 8.03232634 6.10716135 10.06747006 6.09765625 12.1015625 C6.09443359 13.31328125 6.09121094 14.525 6.08789062 15.7734375 C6.07951172 17.04445313 6.07113281 18.31546875 6.0625 19.625 C6.05798828 20.90375 6.05347656 22.1825 6.04882812 23.5 C6.03701203 26.66671292 6.02053815 29.83333356 6 33 C2.7 33 -0.6 33 -4 33 C-4.02505615 32.27820557 -4.0501123 31.55641113 -4.07592773 30.81274414 C-4.19151302 27.562465 -4.31440774 24.31250312 -4.4375 21.0625 C-4.47681641 19.92619141 -4.51613281 18.78988281 -4.55664062 17.61914062 C-4.59853516 16.53955078 -4.64042969 15.45996094 -4.68359375 14.34765625 C-4.72025146 13.34742432 -4.75690918 12.34719238 -4.79467773 11.31665039 C-4.74671841 9.03930812 -4.74671841 9.03930812 -6 8 C-8.41537838 7.58282721 -8.41537838 7.58282721 -11 8 C-13.77157387 10.90051321 -14.39110067 13.02810207 -14.51171875 16.984375 C-14.54716797 17.91894531 -14.58261719 18.85351562 -14.61914062 19.81640625 C-14.65297852 21.26853516 -14.65297852 21.26853516 -14.6875 22.75 C-14.72166016 23.73355469 -14.75582031 24.71710938 -14.79101562 25.73046875 C-14.87334309 28.15324858 -14.93835225 30.5766058 -15 33 C-17.97 33 -20.94 33 -24 33 C-24 22.44 -24 11.88 -24 1 C-21.03 1 -18.06 1 -15 1 C-15 1.99 -15 2.98 -15 4 C-14.195625 3.34 -13.39125 2.68 -12.5625 2 C-8.56511496 -0.65229339 -4.65847527 -0.8750727 0 0 Z " fill="#820482" transform="translate(403,82)"/>
<path d="M0 0 C3.3 0 6.6 0 10 0 C10 2.97 10 5.94 10 9 C12.31 9 14.62 9 17 9 C17 11.31 17 13.62 17 16 C14.69 16 12.38 16 10 16 C10.33 20.95 10.66 25.9 11 31 C12.98 31.66 14.96 32.32 17 33 C17 35.64 17 38.28 17 41 C15.08404032 41.08133791 13.16708068 41.13934367 11.25 41.1875 C9.64898437 41.23970703 9.64898437 41.23970703 8.015625 41.29296875 C4.65263456 40.96625336 3.36358747 40.36910987 1 38 C0.05862745 35.17588235 -0.11725382 33.47081968 -0.09765625 30.55078125 C-0.09443359 29.70322266 -0.09121094 28.85566406 -0.08789062 27.98242188 C-0.07951172 27.10134766 -0.07113281 26.22027344 -0.0625 25.3125 C-0.05798828 24.41982422 -0.05347656 23.52714844 -0.04882812 22.60742188 C-0.03704983 20.40488013 -0.02060164 18.20247401 0 16 C-1.65 16 -3.3 16 -5 16 C-5 13.36 -5 10.72 -5 8 C-3.35 8 -1.7 8 0 8 C0 5.36 0 2.72 0 0 Z " fill="#850A85" transform="translate(416,74)"/>
<path d="M0 0 C3.65836656 0.20641027 7.31951919 0.29630037 10.98205566 0.39672852 C18.14068992 0.60986809 25.28556274 0.94996974 32.43518066 1.37329102 C32.93018066 2.36329102 32.93018066 2.36329102 33.43518066 3.37329102 C32.68730789 3.33474503 31.93943512 3.29619904 31.16889954 3.25648499 C24.06499476 2.91134033 16.96818913 2.68056161 9.85735035 2.57276249 C6.20108121 2.51343676 2.55655532 2.41263155 -1.09484863 2.2109375 C-17.00657927 0.8568766 -17.00657927 0.8568766 -31.07077026 6.49084473 C-35.37298788 11.94233832 -37.94982583 18.05931255 -40.40927124 24.50888062 C-41.98952159 28.42605686 -44.09395612 31.83115004 -46.40466309 35.34985352 C-47.43816895 37.03208008 -47.43816895 37.03208008 -48.49255371 38.74829102 C-49.52043296 40.41047864 -50.54910482 42.07225205 -51.59387207 43.72387695 C-52.6514327 45.40143574 -53.68477042 47.0941898 -54.71716309 48.78735352 C-55.61422974 50.22522217 -55.61422974 50.22522217 -56.52941895 51.69213867 C-57.84361999 54.32027217 -57.84361999 54.32027217 -56.90197754 56.93017578 C-56.46071533 57.73640381 -56.01945312 58.54263184 -55.56481934 59.37329102 C-55.16939941 60.1316626 -54.77397949 60.89003418 -54.36657715 61.67138672 C-53.92152832 62.45602295 -53.47647949 63.24065918 -53.01794434 64.04907227 C-52.24257324 65.41902344 -52.24257324 65.41902344 -51.45153809 66.81665039 C-50.9114209 67.7634668 -50.37130371 68.7102832 -49.81481934 69.68579102 C-49.3211084 70.55913086 -48.82739746 71.4324707 -48.31872559 72.33227539 C-47.17361951 74.34938114 -45.99059156 76.34516771 -44.78210449 78.32495117 C-42.87813318 81.58511976 -41.50889989 84.94520801 -40.10925293 88.44897461 C-35.14414781 100.25948123 -35.14414781 100.25948123 -25.29064941 107.66665649 C-16.52531859 109.41550435 -7.73376514 109.0042242 1.1373291 108.48480225 C4.78289966 108.29771075 8.43023349 108.25011607 12.07971191 108.18969727 C19.20574246 108.05167293 26.31806791 107.76240073 33.43518066 107.37329102 C33.43518066 108.03329102 33.43518066 108.69329102 33.43518066 109.37329102 C25.35979407 109.67545392 17.28679172 109.90592675 9.20713806 110.04684925 C5.4544523 110.11451597 1.70564976 110.2061257 -2.0447998 110.35400391 C-5.66969311 110.49602516 -9.29087347 110.57312196 -12.91833496 110.60669518 C-14.2966972 110.63058989 -15.67487096 110.67726823 -17.05163574 110.74778175 C-21.50858062 110.96682251 -25.34900169 110.89668067 -29.56481934 109.37329102 C-33.22601515 105.41586328 -35.27509674 101.26023237 -37.56481934 96.37329102 C-38.80659353 94.20754691 -40.06455626 92.05091662 -41.34606934 89.90844727 C-43.2452216 86.61241029 -45.13580207 83.31160884 -47.02355957 80.0090332 C-51.11641462 72.84914669 -51.11641462 72.84914669 -55.38122559 65.79125977 C-55.77052246 65.15373779 -56.15981934 64.51621582 -56.56091309 63.859375 C-57.53915465 62.26682102 -58.53736254 60.6865766 -59.53747559 59.10766602 C-60.92158663 55.42372028 -60.00670194 53.99158465 -58.56481934 50.37329102 C-57.45399204 48.26879797 -56.28499674 46.19441003 -55.07263184 44.14672852 C-54.72658905 43.55896637 -54.38054626 42.97120422 -54.02401733 42.3656311 C-52.91790355 40.49000117 -51.80398049 38.61914924 -50.68981934 36.74829102 C-49.62133915 34.93911531 -48.55446425 33.12906797 -47.49169922 31.31652832 C-46.74515567 30.06350459 -45.98221058 28.82012784 -45.2043457 27.58630371 C-42.85724936 23.81822932 -41.03373752 20.14273001 -39.43395996 15.99633789 C-31.58735411 -2.59639907 -17.72324892 -1.10651928 0 0 Z " fill="#CBB9CB" transform="translate(144.5648193359375,40.626708984375)"/>
<path d="M0 0 C4.34999469 2.27407532 6.94290863 4.87477157 8.92578125 9.31640625 C9.76143324 14.98464944 10.04437289 20.4452879 6.80078125 25.37890625 C3.59356007 29.04174938 0.43785653 30.98856608 -4.46875 31.62890625 C-10.19565798 31.90366046 -13.63541437 31.22678154 -18.07421875 27.31640625 C-22.37649465 22.54901944 -23.43704378 18.8789333 -23.35546875 12.59765625 C-22.76602486 7.81661139 -19.92601078 5.06679447 -16.44921875 2.00390625 C-11.51145046 -1.50450806 -5.7975938 -1.91069475 0 0 Z M-19.07421875 8.31640625 C-20.79996991 11.76790857 -20.43526069 15.53531245 -20.07421875 19.31640625 C-18.33002438 23.44739292 -15.96327679 26.08226653 -12.07421875 28.31640625 C-7.04794098 29.14851578 -3.22608151 28.88186615 1.36328125 26.62890625 C5.38491962 22.99962284 6.75800745 20.82637045 7.36328125 15.37890625 C7.18572252 11.10135495 5.73591871 8.58224167 2.92578125 5.31640625 C-0.85129045 1.98369593 -4.68883967 1.69646762 -9.5625 1.8203125 C-13.75564664 2.64850787 -16.36534546 5.11877601 -19.07421875 8.31640625 Z " fill="#8D1A8D" transform="translate(166.07421875,61.68359375)"/>
<path d="M0 0 C-2 2 -4 4 -6 6 C-6.66977494 8.32680295 -6.66977494 8.32680295 -6 11 C-4.26975142 12.47936253 -2.48987122 13.63098884 -0.53125 14.7890625 C-0.0259375 15.18867187 0.479375 15.58828125 1 16 C1 16.99 1 17.98 1 19 C-0.65 19 -2.3 19 -4 19 C-4 18.01 -4 17.02 -4 16 C-4.99 16 -5.98 16 -7 16 C-6.67 17.65 -6.34 19.3 -6 21 C-5.01 21.33 -4.02 21.66 -3 22 C-3 22.99 -3 23.98 -3 25 C-2.34 25.33 -1.68 25.66 -1 26 C-4.11098915 26.4552667 -6.22747574 26.49460395 -8.921875 24.76953125 C-12.53455559 21.74652373 -14.56603609 19.83449846 -15.30859375 14.984375 C-15.57869328 10.30264985 -15.21806602 7.64244271 -12.125 4 C-8.20671267 -0.08864765 -5.65695771 -0.10475848 0 0 Z " fill="#FBF7FB" transform="translate(161,64)"/>
<path d="M0 0 C2.54365243 0.5692448 3.4277388 1.31528265 4.9375 3.43359375 C5.30078125 5.7734375 5.30078125 5.7734375 5.25 8.37109375 C5.24613281 9.22574219 5.24226563 10.08039063 5.23828125 10.9609375 C4.92083059 13.57062931 4.33873439 15.22033661 2.9375 17.43359375 C0.13879973 18.83294388 -1.96748792 18.6862478 -5.0625 18.43359375 C-7.62199546 16.580166 -8.04168798 15.49602982 -9.0625 12.43359375 C-9.50085616 5.52948416 -9.50085616 5.52948416 -8.0625 1.93359375 C-5.36069181 -0.09276239 -3.30591949 -0.00626121 0 0 Z " fill="#FAF5FA" transform="translate(271.0625,89.56640625)"/>
<path d="M0 0 C2.97 0 5.94 0 9 0 C9 7.59 9 15.18 9 23 C6.03 23 3.06 23 0 23 C0 15.41 0 7.82 0 0 Z " fill="#F8F1F8" transform="translate(109,97)"/>
<path d="M0 0 C3.30387931 1.80387931 3.30387931 1.80387931 4.5625 3.0625 C8.11491866 3.23238187 11.66067302 3.35980825 15.21679688 3.40429688 C21.05238035 3.62005791 21.05238035 3.62005791 23.91796875 6.10546875 C24.46066406 6.75128906 25.00335938 7.39710937 25.5625 8.0625 C26.5525 8.0625 27.5425 8.0625 28.5625 8.0625 C27.54498111 11.34117199 26.58984459 12.04799063 23.5 13.6875 C19.34113391 15.37575257 15.55874392 15.40820312 11.125 15.25 C10.39345703 15.23646484 9.66191406 15.22292969 8.90820312 15.20898438 C7.12597578 15.17403874 5.34413427 15.12024805 3.5625 15.0625 C3.2325 14.0725 2.9025 13.0825 2.5625 12.0625 C8.5025 11.7325 14.4425 11.4025 20.5625 11.0625 C20.8925 9.7425 21.2225 8.4225 21.5625 7.0625 C19.66564453 7.11470703 19.66564453 7.11470703 17.73046875 7.16796875 C16.07032577 7.19610677 14.41016844 7.22340691 12.75 7.25 C11.49993164 7.28770508 11.49993164 7.28770508 10.22460938 7.32617188 C9.02094727 7.34067383 9.02094727 7.34067383 7.79296875 7.35546875 C6.68538208 7.37903442 6.68538208 7.37903442 5.55541992 7.40307617 C3.01235437 6.96848393 2.2554884 5.94975119 0.5625 4.0625 C-4.69333572 1.62686881 -9.77338684 1.86100981 -15.4375 2.0625 C-15.4375 1.0725 -15.4375 0.0825 -15.4375 -0.9375 C-9.80269047 -2.81576984 -5.25532487 -2.60875839 0 0 Z " fill="#902090" transform="translate(143.4375,96.9375)"/>
<path d="M0 0 C0.99 0 1.98 0 3 0 C7 4.22857143 7 4.22857143 7 8 C6.01 8 5.02 8 4 8 C3.67 7.34 3.34 6.68 3 6 C0.97536745 5.34786708 0.97536745 5.34786708 -1 5 C0.12439697 7.96431929 0.74706125 8.86750828 3.625 10.375 C4.40875 10.91125 5.1925 11.4475 6 12 C6.3125 15.1875 6.3125 15.1875 6 18 C5.01 18.33 4.02 18.66 3 19 C3 19.99 3 20.98 3 22 C2.01 22 1.02 22 0 22 C-4 17.77142857 -4 17.77142857 -4 14 C-3.01 14 -2.02 14 -1 14 C-1 14.99 -1 15.98 -1 17 C0.65 17 2.3 17 4 17 C2.86451017 13.5935305 2.36074109 13.38485019 -0.5625 11.625 C-2.4765625 10.33984375 -2.4765625 10.33984375 -4 9 C-4.4375 6.1875 -4.4375 6.1875 -4 4 C-2.68 3.34 -1.36 2.68 0 2 C0 1.34 0 0.68 0 0 Z " fill="#8C198C" transform="translate(158,66)"/>
<path d="M0 0 C5.85702925 -0.47812484 9.46755289 0.40994288 14 4 C17.47412635 7.74136684 18.22895029 10.40726877 18.25 15.375 C18.18629371 16.91760237 18.10956696 18.45997544 18 20 C17.34 20 16.68 20 16 20 C15.91363281 19.33613281 15.82726562 18.67226562 15.73828125 17.98828125 C14.80870316 12.14643729 13.91138365 8.74200659 9 5 C5.83102432 2.95549956 2.71084804 2.50602473 -1 2 C-0.67 1.34 -0.34 0.68 0 0 Z " fill="#860D86" transform="translate(157,61)"/>
<path d="M0 0 C2.375 1.3125 2.375 1.3125 4 3 C4 3.99 4 4.98 4 6 C-0.62 6 -5.24 6 -10 6 C-8.49272615 -0.02909541 -5.79201724 -0.59102217 0 0 Z " fill="#F8F1F8" transform="translate(363,89)"/>
<path d="M0 0 C0.66 0.33 1.32 0.66 2 1 C0.54144353 4.68646141 -1.30229045 6.16143971 -4.625 8.25 C-5.44226563 8.77078125 -6.25953125 9.2915625 -7.1015625 9.828125 C-8.04128906 10.40820312 -8.04128906 10.40820312 -9 11 C-7.73420531 7.24736623 -6.47163895 5.15334212 -3.375 2.6875 C-2.74335938 2.17574219 -2.11171875 1.66398437 -1.4609375 1.13671875 C-0.73777344 0.57404297 -0.73777344 0.57404297 0 0 Z " fill="#8B178B" transform="translate(180,96)"/>
<path d="M0 0 C2.5 2.3125 2.5 2.3125 5 5 C5 5.99 5 6.98 5 8 C4.01 8 3.02 8 2 8 C1.67 7.34 1.34 6.68 1 6 C0.01 5.67 -0.98 5.34 -2 5 C-1.34 3.35 -0.68 1.7 0 0 Z " fill="#912491" transform="translate(160,66)"/>
<path d="M0 0 C0.66 0 1.32 0 2 0 C3.32 2.64 4.64 5.28 6 8 C5.34 8.66 4.68 9.32 4 10 C0 3.375 0 3.375 0 0 Z " fill="#E1D8E1" transform="translate(94,112)"/>
<path d="M0 0 C0.99 0.33 1.98 0.66 3 1 C1.68 3.31 0.36 5.62 -1 8 C-1.99 7.67 -2.98 7.34 -4 7 C-2.68 4.69 -1.36 2.38 0 0 Z " fill="#DFD4DF" transform="translate(90,84)"/>
<path d="M0 0 C0.99 0.33 1.98 0.66 3 1 C1.68 3.31 0.36 5.62 -1 8 C-1.66 7.67 -2.32 7.34 -3 7 C-1.125 2.25 -1.125 2.25 0 0 Z " fill="#E4D9E4" transform="translate(100,67)"/>
</svg>
